ISO-10303-21;
HEADER;
/* Generated by software containing ST-Developer
 * from STEP Tools, Inc. (www.steptools.com) 
 */
/* OPTION: strings as raw bytes, not using required /X/ escapes */

FILE_DESCRIPTION(
/* description */ ('Unknown'),
/* implementation_level */ '2;1');

FILE_NAME(
/* name */ 'Handel',
/* time_stamp */ '2026-02-02T16:38:31+05:00',
/* author */ ('Unknown'),
/* organization */ ('Unknown'),
/* preprocessor_version */ 'ST-DEVELOPER v16.7',
/* originating_system */ 'DEX',
/* authorisation */ $);

FILE_SCHEMA (('AUTOMOTIVE_DESIGN {1 0 10303 214 3 1 1}'));
ENDSEC;

DATA;
#10=PROPERTY_DEFINITION_REPRESENTATION(#14,#12);
#11=PROPERTY_DEFINITION_REPRESENTATION(#15,#13);
#12=REPRESENTATION('',(#16),#1960);
#13=REPRESENTATION('',(#17),#1960);
#14=PROPERTY_DEFINITION('pmi validation property','',#1977);
#15=PROPERTY_DEFINITION('pmi validation property','',#1977);
#16=VALUE_REPRESENTATION_ITEM('number of annotations',COUNT_MEASURE(0.));
#17=VALUE_REPRESENTATION_ITEM('number of views',COUNT_MEASURE(0.));
#18=CONICAL_SURFACE('',#1333,15.,0.785398163397447);
#19=CONICAL_SURFACE('',#1339,15.,0.785398163397448);
#20=CONICAL_SURFACE('',#1352,2.65,0.785398163397449);
#21=CONICAL_SURFACE('',#1353,2.9,0.785398163397449);
#22=CONICAL_SURFACE('',#1354,5.,0.785398163397449);
#23=CONICAL_SURFACE('',#1369,2.40000000000001,0.78539816339745);
#24=CONICAL_SURFACE('',#1370,4.25,0.785398163397448);
#25=CONICAL_SURFACE('',#1371,4.15,0.78539816339745);
#26=TOROIDAL_SURFACE('',#1317,25.,12.);
#27=TOROIDAL_SURFACE('',#1321,25.,12.);
#28=CONTEXT_DEPENDENT_SHAPE_REPRESENTATION(#70,#1979);
#29=CONTEXT_DEPENDENT_SHAPE_REPRESENTATION(#71,#1981);
#30=CONTEXT_DEPENDENT_SHAPE_REPRESENTATION(#72,#1982);
#31=CONTEXT_DEPENDENT_SHAPE_REPRESENTATION(#73,#1984);
#32=CONTEXT_DEPENDENT_SHAPE_REPRESENTATION(#74,#1986);
#33=CONTEXT_DEPENDENT_SHAPE_REPRESENTATION(#75,#1988);
#34=CONTEXT_DEPENDENT_SHAPE_REPRESENTATION(#76,#1989);
#35=CONTEXT_DEPENDENT_SHAPE_REPRESENTATION(#77,#1991);
#36=CONTEXT_DEPENDENT_SHAPE_REPRESENTATION(#78,#1992);
#37=CONTEXT_DEPENDENT_SHAPE_REPRESENTATION(#79,#1993);
#38=CONTEXT_DEPENDENT_SHAPE_REPRESENTATION(#80,#1994);
#39=CONTEXT_DEPENDENT_SHAPE_REPRESENTATION(#81,#1995);
#40=CONTEXT_DEPENDENT_SHAPE_REPRESENTATION(#82,#1996);
#41=CONTEXT_DEPENDENT_SHAPE_REPRESENTATION(#83,#1997);
#42=CONTEXT_DEPENDENT_SHAPE_REPRESENTATION(#84,#1998);
#43=CONTEXT_DEPENDENT_SHAPE_REPRESENTATION(#85,#1999);
#44=CONTEXT_DEPENDENT_SHAPE_REPRESENTATION(#86,#2000);
#45=CONTEXT_DEPENDENT_SHAPE_REPRESENTATION(#87,#2001);
#46=CONTEXT_DEPENDENT_SHAPE_REPRESENTATION(#88,#2002);
#47=CONTEXT_DEPENDENT_SHAPE_REPRESENTATION(#89,#2003);
#48=CONTEXT_DEPENDENT_SHAPE_REPRESENTATION(#90,#2004);
#49=NEXT_ASSEMBLY_USAGE_OCCURRENCE('Bottom Plate','Bottom Plate',
'Bottom Plate',#2005,#2006,'');
#50=NEXT_ASSEMBLY_USAGE_OCCURRENCE('Bottom Plate-2','Bottom Plate-2',
'Bottom Plate-2',#2005,#2007,'');
#51=NEXT_ASSEMBLY_USAGE_OCCURRENCE('Bottom Plate-2','Bottom Plate-2',
'Bottom Plate-2',#2005,#2007,'');
#52=NEXT_ASSEMBLY_USAGE_OCCURRENCE('Handel','Handel','Handel',#2005,#2008,
'');
#53=NEXT_ASSEMBLY_USAGE_OCCURRENCE('Handel_442_445_Fillet 1_oa_0',
'Handel_442_445_Fillet 1_oa_0','Handel_442_445_Fillet 1_oa_0',#2005,#2009,
'');
#54=NEXT_ASSEMBLY_USAGE_OCCURRENCE('Washer M5','Washer M5','Washer M5',
#2005,#2010,'');
#55=NEXT_ASSEMBLY_USAGE_OCCURRENCE('Washer M5','Washer M5','Washer M5',
#2005,#2010,'');
#56=NEXT_ASSEMBLY_USAGE_OCCURRENCE('Al .HD.-M5x10 mm. Lg.',
'Al .HD.-M5x10 mm. Lg.','Al .HD.-M5x10 mm. Lg.',#2005,#2011,'');
#57=NEXT_ASSEMBLY_USAGE_OCCURRENCE('Al .HD.-M5x10 mm. Lg.',
'Al .HD.-M5x10 mm. Lg.','Al .HD.-M5x10 mm. Lg.',#2005,#2011,'');
#58=NEXT_ASSEMBLY_USAGE_OCCURRENCE('Al .HD.-M5x10 mm. Lg.',
'Al .HD.-M5x10 mm. Lg.','Al .HD.-M5x10 mm. Lg.',#2005,#2011,'');
#59=NEXT_ASSEMBLY_USAGE_OCCURRENCE('Washer M5','Washer M5','Washer M5',
#2005,#2010,'');
#60=NEXT_ASSEMBLY_USAGE_OCCURRENCE('Al .HD.-M5x10 mm. Lg.',
'Al .HD.-M5x10 mm. Lg.','Al .HD.-M5x10 mm. Lg.',#2005,#2011,'');
#61=NEXT_ASSEMBLY_USAGE_OCCURRENCE('Washer M5','Washer M5','Washer M5',
#2005,#2010,'');
#62=NEXT_ASSEMBLY_USAGE_OCCURRENCE('Al .HD.-M5x10 mm. Lg.',
'Al .HD.-M5x10 mm. Lg.','Al .HD.-M5x10 mm. Lg.',#2005,#2011,'');
#63=NEXT_ASSEMBLY_USAGE_OCCURRENCE('Washer M5','Washer M5','Washer M5',
#2005,#2010,'');
#64=NEXT_ASSEMBLY_USAGE_OCCURRENCE('Washer M5','Washer M5','Washer M5',
#2005,#2010,'');
#65=NEXT_ASSEMBLY_USAGE_OCCURRENCE('Al .HD.-M5x10 mm. Lg.',
'Al .HD.-M5x10 mm. Lg.','Al .HD.-M5x10 mm. Lg.',#2005,#2011,'');
#66=NEXT_ASSEMBLY_USAGE_OCCURRENCE('Washer M5','Washer M5','Washer M5',
#2005,#2010,'');
#67=NEXT_ASSEMBLY_USAGE_OCCURRENCE('Al .HD.-M5x10 mm. Lg.',
'Al .HD.-M5x10 mm. Lg.','Al .HD.-M5x10 mm. Lg.',#2005,#2011,'');
#68=NEXT_ASSEMBLY_USAGE_OCCURRENCE('Washer M5','Washer M5','Washer M5',
#2005,#2010,'');
#69=NEXT_ASSEMBLY_USAGE_OCCURRENCE('Al .HD.-M5x10 mm. Lg.',
'Al .HD.-M5x10 mm. Lg.','Al .HD.-M5x10 mm. Lg.',#2005,#2011,'');
#70=(
REPRESENTATION_RELATIONSHIP(' ',' ',#1252,#1253)
REPRESENTATION_RELATIONSHIP_WITH_TRANSFORMATION(#91)
SHAPE_REPRESENTATION_RELATIONSHIP()
);
#71=(
REPRESENTATION_RELATIONSHIP(' ',' ',#1254,#1253)
REPRESENTATION_RELATIONSHIP_WITH_TRANSFORMATION(#92)
SHAPE_REPRESENTATION_RELATIONSHIP()
);
#72=(
REPRESENTATION_RELATIONSHIP(' ',' ',#1254,#1253)
REPRESENTATION_RELATIONSHIP_WITH_TRANSFORMATION(#93)
SHAPE_REPRESENTATION_RELATIONSHIP()
);
#73=(
REPRESENTATION_RELATIONSHIP(' ',' ',#1255,#1253)
REPRESENTATION_RELATIONSHIP_WITH_TRANSFORMATION(#94)
SHAPE_REPRESENTATION_RELATIONSHIP()
);
#74=(
REPRESENTATION_RELATIONSHIP(' ',' ',#1256,#1253)
REPRESENTATION_RELATIONSHIP_WITH_TRANSFORMATION(#95)
SHAPE_REPRESENTATION_RELATIONSHIP()
);
#75=(
REPRESENTATION_RELATIONSHIP(' ',' ',#1257,#1253)
REPRESENTATION_RELATIONSHIP_WITH_TRANSFORMATION(#96)
SHAPE_REPRESENTATION_RELATIONSHIP()
);
#76=(
REPRESENTATION_RELATIONSHIP(' ',' ',#1257,#1253)
REPRESENTATION_RELATIONSHIP_WITH_TRANSFORMATION(#97)
SHAPE_REPRESENTATION_RELATIONSHIP()
);
#77=(
REPRESENTATION_RELATIONSHIP(' ',' ',#1258,#1253)
REPRESENTATION_RELATIONSHIP_WITH_TRANSFORMATION(#98)
SHAPE_REPRESENTATION_RELATIONSHIP()
);
#78=(
REPRESENTATION_RELATIONSHIP(' ',' ',#1258,#1253)
REPRESENTATION_RELATIONSHIP_WITH_TRANSFORMATION(#99)
SHAPE_REPRESENTATION_RELATIONSHIP()
);
#79=(
REPRESENTATION_RELATIONSHIP(' ',' ',#1258,#1253)
REPRESENTATION_RELATIONSHIP_WITH_TRANSFORMATION(#100)
SHAPE_REPRESENTATION_RELATIONSHIP()
);
#80=(
REPRESENTATION_RELATIONSHIP(' ',' ',#1257,#1253)
REPRESENTATION_RELATIONSHIP_WITH_TRANSFORMATION(#101)
SHAPE_REPRESENTATION_RELATIONSHIP()
);
#81=(
REPRESENTATION_RELATIONSHIP(' ',' ',#1258,#1253)
REPRESENTATION_RELATIONSHIP_WITH_TRANSFORMATION(#102)
SHAPE_REPRESENTATION_RELATIONSHIP()
);
#82=(
REPRESENTATION_RELATIONSHIP(' ',' ',#1257,#1253)
REPRESENTATION_RELATIONSHIP_WITH_TRANSFORMATION(#103)
SHAPE_REPRESENTATION_RELATIONSHIP()
);
#83=(
REPRESENTATION_RELATIONSHIP(' ',' ',#1258,#1253)
REPRESENTATION_RELATIONSHIP_WITH_TRANSFORMATION(#104)
SHAPE_REPRESENTATION_RELATIONSHIP()
);
#84=(
REPRESENTATION_RELATIONSHIP(' ',' ',#1257,#1253)
REPRESENTATION_RELATIONSHIP_WITH_TRANSFORMATION(#105)
SHAPE_REPRESENTATION_RELATIONSHIP()
);
#85=(
REPRESENTATION_RELATIONSHIP(' ',' ',#1257,#1253)
REPRESENTATION_RELATIONSHIP_WITH_TRANSFORMATION(#106)
SHAPE_REPRESENTATION_RELATIONSHIP()
);
#86=(
REPRESENTATION_RELATIONSHIP(' ',' ',#1258,#1253)
REPRESENTATION_RELATIONSHIP_WITH_TRANSFORMATION(#107)
SHAPE_REPRESENTATION_RELATIONSHIP()
);
#87=(
REPRESENTATION_RELATIONSHIP(' ',' ',#1257,#1253)
REPRESENTATION_RELATIONSHIP_WITH_TRANSFORMATION(#108)
SHAPE_REPRESENTATION_RELATIONSHIP()
);
#88=(
REPRESENTATION_RELATIONSHIP(' ',' ',#1258,#1253)
REPRESENTATION_RELATIONSHIP_WITH_TRANSFORMATION(#109)
SHAPE_REPRESENTATION_RELATIONSHIP()
);
#89=(
REPRESENTATION_RELATIONSHIP(' ',' ',#1257,#1253)
REPRESENTATION_RELATIONSHIP_WITH_TRANSFORMATION(#110)
SHAPE_REPRESENTATION_RELATIONSHIP()
);
#90=(
REPRESENTATION_RELATIONSHIP(' ',' ',#1258,#1253)
REPRESENTATION_RELATIONSHIP_WITH_TRANSFORMATION(#111)
SHAPE_REPRESENTATION_RELATIONSHIP()
);
#91=ITEM_DEFINED_TRANSFORMATION(' ',' ',#1259,#1294);
#92=ITEM_DEFINED_TRANSFORMATION(' ',' ',#1259,#1312);
#93=ITEM_DEFINED_TRANSFORMATION(' ',' ',#1259,#1313);
#94=ITEM_DEFINED_TRANSFORMATION(' ',' ',#1259,#1327);
#95=ITEM_DEFINED_TRANSFORMATION(' ',' ',#1259,#1340);
#96=ITEM_DEFINED_TRANSFORMATION(' ',' ',#1259,#1355);
#97=ITEM_DEFINED_TRANSFORMATION(' ',' ',#1259,#1356);
#98=ITEM_DEFINED_TRANSFORMATION(' ',' ',#1259,#1379);
#99=ITEM_DEFINED_TRANSFORMATION(' ',' ',#1259,#1380);
#100=ITEM_DEFINED_TRANSFORMATION(' ',' ',#1259,#1381);
#101=ITEM_DEFINED_TRANSFORMATION(' ',' ',#1259,#1382);
#102=ITEM_DEFINED_TRANSFORMATION(' ',' ',#1259,#1383);
#103=ITEM_DEFINED_TRANSFORMATION(' ',' ',#1259,#1384);
#104=ITEM_DEFINED_TRANSFORMATION(' ',' ',#1259,#1385);
#105=ITEM_DEFINED_TRANSFORMATION(' ',' ',#1259,#1386);
#106=ITEM_DEFINED_TRANSFORMATION(' ',' ',#1259,#1387);
#107=ITEM_DEFINED_TRANSFORMATION(' ',' ',#1259,#1388);
#108=ITEM_DEFINED_TRANSFORMATION(' ',' ',#1259,#1389);
#109=ITEM_DEFINED_TRANSFORMATION(' ',' ',#1259,#1390);
#110=ITEM_DEFINED_TRANSFORMATION(' ',' ',#1259,#1391);
#111=ITEM_DEFINED_TRANSFORMATION(' ',' ',#1259,#1392);
#112=SHAPE_REPRESENTATION_RELATIONSHIP('','',#1252,#118);
#113=SHAPE_REPRESENTATION_RELATIONSHIP('','',#1254,#119);
#114=SHAPE_REPRESENTATION_RELATIONSHIP('','',#1255,#120);
#115=SHAPE_REPRESENTATION_RELATIONSHIP('','',#1256,#121);
#116=SHAPE_REPRESENTATION_RELATIONSHIP('','',#1257,#122);
#117=SHAPE_REPRESENTATION_RELATIONSHIP('','',#1258,#123);
#118=ADVANCED_BREP_SHAPE_REPRESENTATION('',(#1238),#1961);
#119=ADVANCED_BREP_SHAPE_REPRESENTATION('',(#1239),#1962);
#120=ADVANCED_BREP_SHAPE_REPRESENTATION('',(#1240),#1963);
#121=ADVANCED_BREP_SHAPE_REPRESENTATION('',(#1241,#1242),#1964);
#122=ADVANCED_BREP_SHAPE_REPRESENTATION('',(#1243),#1965);
#123=ADVANCED_BREP_SHAPE_REPRESENTATION('',(#1244),#1966);
#124=CYLINDRICAL_SURFACE('',#1286,2.067);
#125=CYLINDRICAL_SURFACE('',#1287,2.067);
#126=CYLINDRICAL_SURFACE('',#1288,2.067);
#127=CYLINDRICAL_SURFACE('',#1289,2.067);
#128=CYLINDRICAL_SURFACE('',#1290,2.067);
#129=CYLINDRICAL_SURFACE('',#1291,2.067);
#130=CYLINDRICAL_SURFACE('',#1292,2.067);
#131=CYLINDRICAL_SURFACE('',#1293,2.067);
#132=CYLINDRICAL_SURFACE('',#1295,3.);
#133=CYLINDRICAL_SURFACE('',#1298,3.);
#134=CYLINDRICAL_SURFACE('',#1301,3.);
#135=CYLINDRICAL_SURFACE('',#1304,35.);
#136=CYLINDRICAL_SURFACE('',#1311,3.);
#137=CYLINDRICAL_SURFACE('',#1314,12.);
#138=CYLINDRICAL_SURFACE('',#1319,12.);
#139=CYLINDRICAL_SURFACE('',#1323,12.);
#140=CYLINDRICAL_SURFACE('',#1328,12.);
#141=CYLINDRICAL_SURFACE('',#1334,12.);
#142=CYLINDRICAL_SURFACE('',#1341,2.65);
#143=CYLINDRICAL_SURFACE('',#1344,5.);
#144=CYLINDRICAL_SURFACE('',#1359,2.50000000000001);
#145=CYLINDRICAL_SURFACE('',#1364,4.25);
#146=CIRCLE('',#1265,2.067);
#147=CIRCLE('',#1266,2.067);
#148=CIRCLE('',#1267,2.067);
#149=CIRCLE('',#1268,2.067);
#150=CIRCLE('',#1269,2.067);
#151=CIRCLE('',#1270,2.067);
#152=CIRCLE('',#1271,2.067);
#153=CIRCLE('',#1272,2.067);
#154=CIRCLE('',#1274,2.067);
#155=CIRCLE('',#1275,2.067);
#156=CIRCLE('',#1276,2.067);
#157=CIRCLE('',#1277,2.067);
#158=CIRCLE('',#1278,2.067);
#159=CIRCLE('',#1279,2.067);
#160=CIRCLE('',#1280,2.067);
#161=CIRCLE('',#1281,2.067);
#162=CIRCLE('',#1296,3.);
#163=CIRCLE('',#1297,3.);
#164=CIRCLE('',#1299,3.);
#165=CIRCLE('',#1300,3.);
#166=CIRCLE('',#1302,3.);
#167=CIRCLE('',#1303,3.);
#168=CIRCLE('',#1305,35.);
#169=CIRCLE('',#1306,35.);
#170=CIRCLE('',#1308,3.);
#171=CIRCLE('',#1310,3.);
#172=CIRCLE('',#1315,12.);
#173=CIRCLE('',#1316,12.);
#174=CIRCLE('',#1318,12.);
#175=CIRCLE('',#1320,12.);
#176=CIRCLE('',#1322,12.);
#177=CIRCLE('',#1324,12.);
#178=CIRCLE('',#1329,12.);
#179=CIRCLE('',#1330,12.);
#180=CIRCLE('',#1332,15.);
#181=CIRCLE('',#1335,12.);
#182=CIRCLE('',#1336,12.);
#183=CIRCLE('',#1338,15.);
#184=CIRCLE('',#1342,2.65);
#185=CIRCLE('',#1343,2.65);
#186=CIRCLE('',#1345,5.);
#187=CIRCLE('',#1346,5.);
#188=CIRCLE('',#1348,2.9);
#189=CIRCLE('',#1349,4.75);
#190=CIRCLE('',#1351,2.9);
#191=CIRCLE('',#1358,2.40000000000001);
#192=CIRCLE('',#1360,2.50000000000001);
#193=CIRCLE('',#1361,2.50000000000001);
#194=CIRCLE('',#1363,4.15);
#195=CIRCLE('',#1365,4.25);
#196=CIRCLE('',#1366,4.25);
#197=CIRCLE('',#1368,4.15);
#198=ORIENTED_EDGE('',*,*,#386,.T.);
#199=ORIENTED_EDGE('',*,*,#387,.T.);
#200=ORIENTED_EDGE('',*,*,#388,.F.);
#201=ORIENTED_EDGE('',*,*,#389,.T.);
#202=ORIENTED_EDGE('',*,*,#390,.F.);
#203=ORIENTED_EDGE('',*,*,#391,.T.);
#204=ORIENTED_EDGE('',*,*,#392,.T.);
#205=ORIENTED_EDGE('',*,*,#393,.T.);
#206=ORIENTED_EDGE('',*,*,#394,.F.);
#207=ORIENTED_EDGE('',*,*,#395,.T.);
#208=ORIENTED_EDGE('',*,*,#396,.T.);
#209=ORIENTED_EDGE('',*,*,#397,.T.);
#210=ORIENTED_EDGE('',*,*,#398,.T.);
#211=ORIENTED_EDGE('',*,*,#399,.T.);
#212=ORIENTED_EDGE('',*,*,#400,.F.);
#213=ORIENTED_EDGE('',*,*,#401,.T.);
#214=ORIENTED_EDGE('',*,*,#402,.F.);
#215=ORIENTED_EDGE('',*,*,#403,.F.);
#216=ORIENTED_EDGE('',*,*,#404,.F.);
#217=ORIENTED_EDGE('',*,*,#405,.F.);
#218=ORIENTED_EDGE('',*,*,#406,.F.);
#219=ORIENTED_EDGE('',*,*,#407,.F.);
#220=ORIENTED_EDGE('',*,*,#408,.F.);
#221=ORIENTED_EDGE('',*,*,#409,.F.);
#222=ORIENTED_EDGE('',*,*,#388,.T.);
#223=ORIENTED_EDGE('',*,*,#410,.T.);
#224=ORIENTED_EDGE('',*,*,#390,.T.);
#225=ORIENTED_EDGE('',*,*,#411,.T.);
#226=ORIENTED_EDGE('',*,*,#394,.T.);
#227=ORIENTED_EDGE('',*,*,#412,.T.);
#228=ORIENTED_EDGE('',*,*,#400,.T.);
#229=ORIENTED_EDGE('',*,*,#413,.T.);
#230=ORIENTED_EDGE('',*,*,#414,.T.);
#231=ORIENTED_EDGE('',*,*,#415,.T.);
#232=ORIENTED_EDGE('',*,*,#416,.T.);
#233=ORIENTED_EDGE('',*,*,#417,.T.);
#234=ORIENTED_EDGE('',*,*,#418,.T.);
#235=ORIENTED_EDGE('',*,*,#419,.T.);
#236=ORIENTED_EDGE('',*,*,#420,.T.);
#237=ORIENTED_EDGE('',*,*,#421,.T.);
#238=ORIENTED_EDGE('',*,*,#392,.F.);
#239=ORIENTED_EDGE('',*,*,#422,.T.);
#240=ORIENTED_EDGE('',*,*,#386,.F.);
#241=ORIENTED_EDGE('',*,*,#423,.T.);
#242=ORIENTED_EDGE('',*,*,#398,.F.);
#243=ORIENTED_EDGE('',*,*,#424,.T.);
#244=ORIENTED_EDGE('',*,*,#396,.F.);
#245=ORIENTED_EDGE('',*,*,#425,.T.);
#246=ORIENTED_EDGE('',*,*,#410,.F.);
#247=ORIENTED_EDGE('',*,*,#387,.F.);
#248=ORIENTED_EDGE('',*,*,#422,.F.);
#249=ORIENTED_EDGE('',*,*,#391,.F.);
#250=ORIENTED_EDGE('',*,*,#411,.F.);
#251=ORIENTED_EDGE('',*,*,#393,.F.);
#252=ORIENTED_EDGE('',*,*,#425,.F.);
#253=ORIENTED_EDGE('',*,*,#395,.F.);
#254=ORIENTED_EDGE('',*,*,#413,.F.);
#255=ORIENTED_EDGE('',*,*,#399,.F.);
#256=ORIENTED_EDGE('',*,*,#423,.F.);
#257=ORIENTED_EDGE('',*,*,#389,.F.);
#258=ORIENTED_EDGE('',*,*,#412,.F.);
#259=ORIENTED_EDGE('',*,*,#397,.F.);
#260=ORIENTED_EDGE('',*,*,#424,.F.);
#261=ORIENTED_EDGE('',*,*,#401,.F.);
#262=ORIENTED_EDGE('',*,*,#421,.F.);
#263=ORIENTED_EDGE('',*,*,#409,.T.);
#264=ORIENTED_EDGE('',*,*,#420,.F.);
#265=ORIENTED_EDGE('',*,*,#408,.T.);
#266=ORIENTED_EDGE('',*,*,#419,.F.);
#267=ORIENTED_EDGE('',*,*,#407,.T.);
#268=ORIENTED_EDGE('',*,*,#418,.F.);
#269=ORIENTED_EDGE('',*,*,#406,.T.);
#270=ORIENTED_EDGE('',*,*,#417,.F.);
#271=ORIENTED_EDGE('',*,*,#405,.T.);
#272=ORIENTED_EDGE('',*,*,#416,.F.);
#273=ORIENTED_EDGE('',*,*,#404,.T.);
#274=ORIENTED_EDGE('',*,*,#415,.F.);
#275=ORIENTED_EDGE('',*,*,#403,.T.);
#276=ORIENTED_EDGE('',*,*,#414,.F.);
#277=ORIENTED_EDGE('',*,*,#402,.T.);
#278=ORIENTED_EDGE('',*,*,#426,.T.);
#279=ORIENTED_EDGE('',*,*,#427,.T.);
#280=ORIENTED_EDGE('',*,*,#428,.T.);
#281=ORIENTED_EDGE('',*,*,#429,.T.);
#282=ORIENTED_EDGE('',*,*,#430,.T.);
#283=ORIENTED_EDGE('',*,*,#431,.T.);
#284=ORIENTED_EDGE('',*,*,#432,.F.);
#285=ORIENTED_EDGE('',*,*,#433,.T.);
#286=ORIENTED_EDGE('',*,*,#427,.F.);
#287=ORIENTED_EDGE('',*,*,#429,.F.);
#288=ORIENTED_EDGE('',*,*,#431,.F.);
#289=ORIENTED_EDGE('',*,*,#434,.F.);
#290=ORIENTED_EDGE('',*,*,#432,.T.);
#291=ORIENTED_EDGE('',*,*,#426,.F.);
#292=ORIENTED_EDGE('',*,*,#428,.F.);
#293=ORIENTED_EDGE('',*,*,#430,.F.);
#294=ORIENTED_EDGE('',*,*,#435,.F.);
#295=ORIENTED_EDGE('',*,*,#433,.F.);
#296=ORIENTED_EDGE('',*,*,#435,.T.);
#297=ORIENTED_EDGE('',*,*,#434,.T.);
#298=ORIENTED_EDGE('',*,*,#436,.F.);
#299=ORIENTED_EDGE('',*,*,#437,.T.);
#300=ORIENTED_EDGE('',*,*,#437,.F.);
#301=ORIENTED_EDGE('',*,*,#438,.T.);
#302=ORIENTED_EDGE('',*,*,#438,.F.);
#303=ORIENTED_EDGE('',*,*,#439,.T.);
#304=ORIENTED_EDGE('',*,*,#439,.F.);
#305=ORIENTED_EDGE('',*,*,#440,.T.);
#306=ORIENTED_EDGE('',*,*,#440,.F.);
#307=ORIENTED_EDGE('',*,*,#441,.T.);
#308=ORIENTED_EDGE('',*,*,#436,.T.);
#309=ORIENTED_EDGE('',*,*,#441,.F.);
#310=ORIENTED_EDGE('',*,*,#442,.T.);
#311=ORIENTED_EDGE('',*,*,#443,.T.);
#312=ORIENTED_EDGE('',*,*,#443,.F.);
#313=ORIENTED_EDGE('',*,*,#444,.F.);
#314=ORIENTED_EDGE('',*,*,#442,.F.);
#315=ORIENTED_EDGE('',*,*,#444,.T.);
#316=ORIENTED_EDGE('',*,*,#445,.T.);
#317=ORIENTED_EDGE('',*,*,#446,.T.);
#318=ORIENTED_EDGE('',*,*,#446,.F.);
#319=ORIENTED_EDGE('',*,*,#447,.F.);
#320=ORIENTED_EDGE('',*,*,#445,.F.);
#321=ORIENTED_EDGE('',*,*,#447,.T.);
#322=ORIENTED_EDGE('',*,*,#448,.T.);
#323=ORIENTED_EDGE('',*,*,#449,.T.);
#324=ORIENTED_EDGE('',*,*,#450,.T.);
#325=ORIENTED_EDGE('',*,*,#451,.F.);
#326=ORIENTED_EDGE('',*,*,#452,.T.);
#327=ORIENTED_EDGE('',*,*,#453,.T.);
#328=ORIENTED_EDGE('',*,*,#454,.T.);
#329=ORIENTED_EDGE('',*,*,#451,.T.);
#330=ORIENTED_EDGE('',*,*,#454,.F.);
#331=ORIENTED_EDGE('',*,*,#448,.F.);
#332=ORIENTED_EDGE('',*,*,#449,.F.);
#333=ORIENTED_EDGE('',*,*,#452,.F.);
#334=ORIENTED_EDGE('',*,*,#453,.F.);
#335=ORIENTED_EDGE('',*,*,#450,.F.);
#336=ORIENTED_EDGE('',*,*,#455,.T.);
#337=ORIENTED_EDGE('',*,*,#456,.T.);
#338=ORIENTED_EDGE('',*,*,#457,.T.);
#339=ORIENTED_EDGE('',*,*,#458,.T.);
#340=ORIENTED_EDGE('',*,*,#457,.F.);
#341=ORIENTED_EDGE('',*,*,#459,.T.);
#342=ORIENTED_EDGE('',*,*,#460,.T.);
#343=ORIENTED_EDGE('',*,*,#461,.F.);
#344=ORIENTED_EDGE('',*,*,#462,.F.);
#345=ORIENTED_EDGE('',*,*,#463,.F.);
#346=ORIENTED_EDGE('',*,*,#464,.F.);
#347=ORIENTED_EDGE('',*,*,#465,.F.);
#348=ORIENTED_EDGE('',*,*,#466,.F.);
#349=ORIENTED_EDGE('',*,*,#467,.T.);
#350=ORIENTED_EDGE('',*,*,#456,.F.);
#351=ORIENTED_EDGE('',*,*,#455,.F.);
#352=ORIENTED_EDGE('',*,*,#467,.F.);
#353=ORIENTED_EDGE('',*,*,#459,.F.);
#354=ORIENTED_EDGE('',*,*,#460,.F.);
#355=ORIENTED_EDGE('',*,*,#458,.F.);
#356=ORIENTED_EDGE('',*,*,#461,.T.);
#357=ORIENTED_EDGE('',*,*,#468,.F.);
#358=ORIENTED_EDGE('',*,*,#469,.F.);
#359=ORIENTED_EDGE('',*,*,#470,.T.);
#360=ORIENTED_EDGE('',*,*,#466,.T.);
#361=ORIENTED_EDGE('',*,*,#471,.F.);
#362=ORIENTED_EDGE('',*,*,#472,.F.);
#363=ORIENTED_EDGE('',*,*,#468,.T.);
#364=ORIENTED_EDGE('',*,*,#465,.T.);
#365=ORIENTED_EDGE('',*,*,#473,.F.);
#366=ORIENTED_EDGE('',*,*,#474,.F.);
#367=ORIENTED_EDGE('',*,*,#471,.T.);
#368=ORIENTED_EDGE('',*,*,#464,.T.);
#369=ORIENTED_EDGE('',*,*,#475,.F.);
#370=ORIENTED_EDGE('',*,*,#476,.F.);
#371=ORIENTED_EDGE('',*,*,#473,.T.);
#372=ORIENTED_EDGE('',*,*,#463,.T.);
#373=ORIENTED_EDGE('',*,*,#477,.F.);
#374=ORIENTED_EDGE('',*,*,#478,.F.);
#375=ORIENTED_EDGE('',*,*,#475,.T.);
#376=ORIENTED_EDGE('',*,*,#462,.T.);
#377=ORIENTED_EDGE('',*,*,#470,.F.);
#378=ORIENTED_EDGE('',*,*,#479,.F.);
#379=ORIENTED_EDGE('',*,*,#477,.T.);
#380=ORIENTED_EDGE('',*,*,#469,.T.);
#381=ORIENTED_EDGE('',*,*,#472,.T.);
#382=ORIENTED_EDGE('',*,*,#474,.T.);
#383=ORIENTED_EDGE('',*,*,#476,.T.);
#384=ORIENTED_EDGE('',*,*,#478,.T.);
#385=ORIENTED_EDGE('',*,*,#479,.T.);
#386=EDGE_CURVE('',#480,#481,#560,.T.);
#387=EDGE_CURVE('',#481,#482,#561,.T.);
#388=EDGE_CURVE('',#483,#482,#562,.T.);
#389=EDGE_CURVE('',#483,#480,#563,.T.);
#390=EDGE_CURVE('',#484,#485,#564,.T.);
#391=EDGE_CURVE('',#484,#486,#565,.T.);
#392=EDGE_CURVE('',#486,#487,#566,.T.);
#393=EDGE_CURVE('',#487,#485,#567,.T.);
#394=EDGE_CURVE('',#488,#489,#568,.T.);
#395=EDGE_CURVE('',#488,#490,#569,.T.);
#396=EDGE_CURVE('',#490,#491,#570,.T.);
#397=EDGE_CURVE('',#491,#489,#571,.T.);
#398=EDGE_CURVE('',#492,#493,#572,.T.);
#399=EDGE_CURVE('',#493,#494,#573,.T.);
#400=EDGE_CURVE('',#495,#494,#574,.T.);
#401=EDGE_CURVE('',#495,#492,#575,.T.);
#402=EDGE_CURVE('',#496,#496,#146,.T.);
#403=EDGE_CURVE('',#497,#497,#147,.T.);
#404=EDGE_CURVE('',#498,#498,#148,.T.);
#405=EDGE_CURVE('',#499,#499,#149,.T.);
#406=EDGE_CURVE('',#500,#500,#150,.T.);
#407=EDGE_CURVE('',#501,#501,#151,.T.);
#408=EDGE_CURVE('',#502,#502,#152,.T.);
#409=EDGE_CURVE('',#503,#503,#153,.T.);
#410=EDGE_CURVE('',#482,#484,#576,.F.);
#411=EDGE_CURVE('',#485,#488,#577,.F.);
#412=EDGE_CURVE('',#489,#495,#578,.F.);
#413=EDGE_CURVE('',#494,#483,#579,.F.);
#414=EDGE_CURVE('',#504,#504,#154,.T.);
#415=EDGE_CURVE('',#505,#505,#155,.T.);
#416=EDGE_CURVE('',#506,#506,#156,.T.);
#417=EDGE_CURVE('',#507,#507,#157,.T.);
#418=EDGE_CURVE('',#508,#508,#158,.T.);
#419=EDGE_CURVE('',#509,#509,#159,.T.);
#420=EDGE_CURVE('',#510,#510,#160,.T.);
#421=EDGE_CURVE('',#511,#511,#161,.T.);
#422=EDGE_CURVE('',#486,#481,#580,.F.);
#423=EDGE_CURVE('',#480,#493,#581,.F.);
#424=EDGE_CURVE('',#492,#491,#582,.F.);
#425=EDGE_CURVE('',#490,#487,#583,.F.);
#426=EDGE_CURVE('',#512,#512,#162,.T.);
#427=EDGE_CURVE('',#513,#513,#163,.T.);
#428=EDGE_CURVE('',#514,#514,#164,.T.);
#429=EDGE_CURVE('',#515,#515,#165,.T.);
#430=EDGE_CURVE('',#516,#516,#166,.T.);
#431=EDGE_CURVE('',#517,#517,#167,.T.);
#432=EDGE_CURVE('',#518,#518,#168,.T.);
#433=EDGE_CURVE('',#519,#519,#169,.T.);
#434=EDGE_CURVE('',#520,#520,#170,.T.);
#435=EDGE_CURVE('',#521,#521,#171,.T.);
#436=EDGE_CURVE('',#522,#522,#172,.F.);
#437=EDGE_CURVE('',#523,#523,#173,.F.);
#438=EDGE_CURVE('',#524,#524,#174,.F.);
#439=EDGE_CURVE('',#525,#525,#175,.F.);
#440=EDGE_CURVE('',#526,#526,#176,.F.);
#441=EDGE_CURVE('',#527,#527,#177,.F.);
#442=EDGE_CURVE('',#528,#528,#178,.F.);
#443=EDGE_CURVE('',#529,#529,#179,.T.);
#444=EDGE_CURVE('',#530,#530,#180,.F.);
#445=EDGE_CURVE('',#531,#531,#181,.F.);
#446=EDGE_CURVE('',#532,#532,#182,.T.);
#447=EDGE_CURVE('',#533,#533,#183,.F.);
#448=EDGE_CURVE('',#534,#534,#184,.T.);
#449=EDGE_CURVE('',#535,#535,#185,.F.);
#450=EDGE_CURVE('',#536,#536,#186,.T.);
#451=EDGE_CURVE('',#537,#537,#187,.T.);
#452=EDGE_CURVE('',#538,#538,#188,.T.);
#453=EDGE_CURVE('',#539,#539,#189,.F.);
#454=EDGE_CURVE('',#540,#540,#190,.F.);
#455=EDGE_CURVE('',#541,#541,#191,.T.);
#456=EDGE_CURVE('',#542,#542,#192,.F.);
#457=EDGE_CURVE('',#543,#543,#193,.T.);
#458=EDGE_CURVE('',#544,#544,#194,.T.);
#459=EDGE_CURVE('',#545,#545,#195,.F.);
#460=EDGE_CURVE('',#546,#546,#196,.F.);
#461=EDGE_CURVE('',#547,#548,#584,.T.);
#462=EDGE_CURVE('',#549,#547,#585,.T.);
#463=EDGE_CURVE('',#550,#549,#586,.T.);
#464=EDGE_CURVE('',#551,#550,#587,.T.);
#465=EDGE_CURVE('',#552,#551,#588,.T.);
#466=EDGE_CURVE('',#548,#552,#589,.T.);
#467=EDGE_CURVE('',#553,#553,#197,.T.);
#468=EDGE_CURVE('',#554,#548,#590,.T.);
#469=EDGE_CURVE('',#555,#554,#591,.T.);
#470=EDGE_CURVE('',#555,#547,#592,.T.);
#471=EDGE_CURVE('',#556,#552,#593,.T.);
#472=EDGE_CURVE('',#554,#556,#594,.T.);
#473=EDGE_CURVE('',#557,#551,#595,.T.);
#474=EDGE_CURVE('',#556,#557,#596,.T.);
#475=EDGE_CURVE('',#558,#550,#597,.T.);
#476=EDGE_CURVE('',#557,#558,#598,.T.);
#477=EDGE_CURVE('',#559,#549,#599,.T.);
#478=EDGE_CURVE('',#558,#559,#600,.T.);
#479=EDGE_CURVE('',#559,#555,#601,.T.);
#480=VERTEX_POINT('',#1706);
#481=VERTEX_POINT('',#1707);
#482=VERTEX_POINT('',#1709);
#483=VERTEX_POINT('',#1711);
#484=VERTEX_POINT('',#1715);
#485=VERTEX_POINT('',#1716);
#486=VERTEX_POINT('',#1718);
#487=VERTEX_POINT('',#1720);
#488=VERTEX_POINT('',#1724);
#489=VERTEX_POINT('',#1725);
#490=VERTEX_POINT('',#1727);
#491=VERTEX_POINT('',#1729);
#492=VERTEX_POINT('',#1733);
#493=VERTEX_POINT('',#1734);
#494=VERTEX_POINT('',#1736);
#495=VERTEX_POINT('',#1738);
#496=VERTEX_POINT('',#1742);
#497=VERTEX_POINT('',#1744);
#498=VERTEX_POINT('',#1746);
#499=VERTEX_POINT('',#1748);
#500=VERTEX_POINT('',#1750);
#501=VERTEX_POINT('',#1752);
#502=VERTEX_POINT('',#1754);
#503=VERTEX_POINT('',#1756);
#504=VERTEX_POINT('',#1763);
#505=VERTEX_POINT('',#1765);
#506=VERTEX_POINT('',#1767);
#507=VERTEX_POINT('',#1769);
#508=VERTEX_POINT('',#1771);
#509=VERTEX_POINT('',#1773);
#510=VERTEX_POINT('',#1775);
#511=VERTEX_POINT('',#1777);
#512=VERTEX_POINT('',#1797);
#513=VERTEX_POINT('',#1799);
#514=VERTEX_POINT('',#1802);
#515=VERTEX_POINT('',#1804);
#516=VERTEX_POINT('',#1807);
#517=VERTEX_POINT('',#1809);
#518=VERTEX_POINT('',#1812);
#519=VERTEX_POINT('',#1814);
#520=VERTEX_POINT('',#1817);
#521=VERTEX_POINT('',#1820);
#522=VERTEX_POINT('',#1826);
#523=VERTEX_POINT('',#1828);
#524=VERTEX_POINT('',#1831);
#525=VERTEX_POINT('',#1834);
#526=VERTEX_POINT('',#1837);
#527=VERTEX_POINT('',#1840);
#528=VERTEX_POINT('',#1846);
#529=VERTEX_POINT('',#1848);
#530=VERTEX_POINT('',#1851);
#531=VERTEX_POINT('',#1855);
#532=VERTEX_POINT('',#1857);
#533=VERTEX_POINT('',#1860);
#534=VERTEX_POINT('',#1865);
#535=VERTEX_POINT('',#1867);
#536=VERTEX_POINT('',#1870);
#537=VERTEX_POINT('',#1872);
#538=VERTEX_POINT('',#1875);
#539=VERTEX_POINT('',#1877);
#540=VERTEX_POINT('',#1880);
#541=VERTEX_POINT('',#1888);
#542=VERTEX_POINT('',#1891);
#543=VERTEX_POINT('',#1893);
#544=VERTEX_POINT('',#1896);
#545=VERTEX_POINT('',#1899);
#546=VERTEX_POINT('',#1901);
#547=VERTEX_POINT('',#1904);
#548=VERTEX_POINT('',#1905);
#549=VERTEX_POINT('',#1907);
#550=VERTEX_POINT('',#1909);
#551=VERTEX_POINT('',#1911);
#552=VERTEX_POINT('',#1913);
#553=VERTEX_POINT('',#1916);
#554=VERTEX_POINT('',#1922);
#555=VERTEX_POINT('',#1924);
#556=VERTEX_POINT('',#1928);
#557=VERTEX_POINT('',#1932);
#558=VERTEX_POINT('',#1936);
#559=VERTEX_POINT('',#1940);
#560=LINE('',#1705,#602);
#561=LINE('',#1708,#603);
#562=LINE('',#1710,#604);
#563=LINE('',#1712,#605);
#564=LINE('',#1714,#606);
#565=LINE('',#1717,#607);
#566=LINE('',#1719,#608);
#567=LINE('',#1721,#609);
#568=LINE('',#1723,#610);
#569=LINE('',#1726,#611);
#570=LINE('',#1728,#612);
#571=LINE('',#1730,#613);
#572=LINE('',#1732,#614);
#573=LINE('',#1735,#615);
#574=LINE('',#1737,#616);
#575=LINE('',#1739,#617);
#576=LINE('',#1757,#618);
#577=LINE('',#1758,#619);
#578=LINE('',#1759,#620);
#579=LINE('',#1760,#621);
#580=LINE('',#1778,#622);
#581=LINE('',#1779,#623);
#582=LINE('',#1780,#624);
#583=LINE('',#1781,#625);
#584=LINE('',#1903,#626);
#585=LINE('',#1906,#627);
#586=LINE('',#1908,#628);
#587=LINE('',#1910,#629);
#588=LINE('',#1912,#630);
#589=LINE('',#1914,#631);
#590=LINE('',#1921,#632);
#591=LINE('',#1923,#633);
#592=LINE('',#1925,#634);
#593=LINE('',#1927,#635);
#594=LINE('',#1929,#636);
#595=LINE('',#1931,#637);
#596=LINE('',#1933,#638);
#597=LINE('',#1935,#639);
#598=LINE('',#1937,#640);
#599=LINE('',#1939,#641);
#600=LINE('',#1941,#642);
#601=LINE('',#1943,#643);
#602=VECTOR('',#1397,1000.);
#603=VECTOR('',#1398,1000.);
#604=VECTOR('',#1399,1000.);
#605=VECTOR('',#1400,1000.);
#606=VECTOR('',#1403,1000.);
#607=VECTOR('',#1404,1000.);
#608=VECTOR('',#1405,1000.);
#609=VECTOR('',#1406,1000.);
#610=VECTOR('',#1409,1000.);
#611=VECTOR('',#1410,1000.);
#612=VECTOR('',#1411,1000.);
#613=VECTOR('',#1412,1000.);
#614=VECTOR('',#1415,1000.);
#615=VECTOR('',#1416,1000.);
#616=VECTOR('',#1417,1000.);
#617=VECTOR('',#1418,1000.);
#618=VECTOR('',#1437,1000.);
#619=VECTOR('',#1438,1000.);
#620=VECTOR('',#1439,1000.);
#621=VECTOR('',#1440,1000.);
#622=VECTOR('',#1459,1000.);
#623=VECTOR('',#1460,1000.);
#624=VECTOR('',#1461,1000.);
#625=VECTOR('',#1462,1000.);
#626=VECTOR('',#1635,1000.);
#627=VECTOR('',#1636,1000.);
#628=VECTOR('',#1637,1000.);
#629=VECTOR('',#1638,1000.);
#630=VECTOR('',#1639,1000.);
#631=VECTOR('',#1640,1000.);
#632=VECTOR('',#1651,1000.);
#633=VECTOR('',#1652,1000.);
#634=VECTOR('',#1653,1000.);
#635=VECTOR('',#1656,1000.);
#636=VECTOR('',#1657,1000.);
#637=VECTOR('',#1660,1000.);
#638=VECTOR('',#1661,1000.);
#639=VECTOR('',#1664,1000.);
#640=VECTOR('',#1665,1000.);
#641=VECTOR('',#1668,1000.);
#642=VECTOR('',#1669,1000.);
#643=VECTOR('',#1672,1000.);
#644=EDGE_LOOP('',(#198,#199,#200,#201));
#645=EDGE_LOOP('',(#202,#203,#204,#205));
#646=EDGE_LOOP('',(#206,#207,#208,#209));
#647=EDGE_LOOP('',(#210,#211,#212,#213));
#648=EDGE_LOOP('',(#214));
#649=EDGE_LOOP('',(#215));
#650=EDGE_LOOP('',(#216));
#651=EDGE_LOOP('',(#217));
#652=EDGE_LOOP('',(#218));
#653=EDGE_LOOP('',(#219));
#654=EDGE_LOOP('',(#220));
#655=EDGE_LOOP('',(#221));
#656=EDGE_LOOP('',(#222,#223,#224,#225,#226,#227,#228,#229));
#657=EDGE_LOOP('',(#230));
#658=EDGE_LOOP('',(#231));
#659=EDGE_LOOP('',(#232));
#660=EDGE_LOOP('',(#233));
#661=EDGE_LOOP('',(#234));
#662=EDGE_LOOP('',(#235));
#663=EDGE_LOOP('',(#236));
#664=EDGE_LOOP('',(#237));
#665=EDGE_LOOP('',(#238,#239,#240,#241,#242,#243,#244,#245));
#666=EDGE_LOOP('',(#246,#247,#248,#249));
#667=EDGE_LOOP('',(#250,#251,#252,#253));
#668=EDGE_LOOP('',(#254,#255,#256,#257));
#669=EDGE_LOOP('',(#258,#259,#260,#261));
#670=EDGE_LOOP('',(#262));
#671=EDGE_LOOP('',(#263));
#672=EDGE_LOOP('',(#264));
#673=EDGE_LOOP('',(#265));
#674=EDGE_LOOP('',(#266));
#675=EDGE_LOOP('',(#267));
#676=EDGE_LOOP('',(#268));
#677=EDGE_LOOP('',(#269));
#678=EDGE_LOOP('',(#270));
#679=EDGE_LOOP('',(#271));
#680=EDGE_LOOP('',(#272));
#681=EDGE_LOOP('',(#273));
#682=EDGE_LOOP('',(#274));
#683=EDGE_LOOP('',(#275));
#684=EDGE_LOOP('',(#276));
#685=EDGE_LOOP('',(#277));
#686=EDGE_LOOP('',(#278));
#687=EDGE_LOOP('',(#279));
#688=EDGE_LOOP('',(#280));
#689=EDGE_LOOP('',(#281));
#690=EDGE_LOOP('',(#282));
#691=EDGE_LOOP('',(#283));
#692=EDGE_LOOP('',(#284));
#693=EDGE_LOOP('',(#285));
#694=EDGE_LOOP('',(#286));
#695=EDGE_LOOP('',(#287));
#696=EDGE_LOOP('',(#288));
#697=EDGE_LOOP('',(#289));
#698=EDGE_LOOP('',(#290));
#699=EDGE_LOOP('',(#291));
#700=EDGE_LOOP('',(#292));
#701=EDGE_LOOP('',(#293));
#702=EDGE_LOOP('',(#294));
#703=EDGE_LOOP('',(#295));
#704=EDGE_LOOP('',(#296));
#705=EDGE_LOOP('',(#297));
#706=EDGE_LOOP('',(#298));
#707=EDGE_LOOP('',(#299));
#708=EDGE_LOOP('',(#300));
#709=EDGE_LOOP('',(#301));
#710=EDGE_LOOP('',(#302));
#711=EDGE_LOOP('',(#303));
#712=EDGE_LOOP('',(#304));
#713=EDGE_LOOP('',(#305));
#714=EDGE_LOOP('',(#306));
#715=EDGE_LOOP('',(#307));
#716=EDGE_LOOP('',(#308));
#717=EDGE_LOOP('',(#309));
#718=EDGE_LOOP('',(#310));
#719=EDGE_LOOP('',(#311));
#720=EDGE_LOOP('',(#312));
#721=EDGE_LOOP('',(#313));
#722=EDGE_LOOP('',(#314));
#723=EDGE_LOOP('',(#315));
#724=EDGE_LOOP('',(#316));
#725=EDGE_LOOP('',(#317));
#726=EDGE_LOOP('',(#318));
#727=EDGE_LOOP('',(#319));
#728=EDGE_LOOP('',(#320));
#729=EDGE_LOOP('',(#321));
#730=EDGE_LOOP('',(#322));
#731=EDGE_LOOP('',(#323));
#732=EDGE_LOOP('',(#324));
#733=EDGE_LOOP('',(#325));
#734=EDGE_LOOP('',(#326));
#735=EDGE_LOOP('',(#327));
#736=EDGE_LOOP('',(#328));
#737=EDGE_LOOP('',(#329));
#738=EDGE_LOOP('',(#330));
#739=EDGE_LOOP('',(#331));
#740=EDGE_LOOP('',(#332));
#741=EDGE_LOOP('',(#333));
#742=EDGE_LOOP('',(#334));
#743=EDGE_LOOP('',(#335));
#744=EDGE_LOOP('',(#336));
#745=EDGE_LOOP('',(#337));
#746=EDGE_LOOP('',(#338));
#747=EDGE_LOOP('',(#339));
#748=EDGE_LOOP('',(#340));
#749=EDGE_LOOP('',(#341));
#750=EDGE_LOOP('',(#342));
#751=EDGE_LOOP('',(#343,#344,#345,#346,#347,#348));
#752=EDGE_LOOP('',(#349));
#753=EDGE_LOOP('',(#350));
#754=EDGE_LOOP('',(#351));
#755=EDGE_LOOP('',(#352));
#756=EDGE_LOOP('',(#353));
#757=EDGE_LOOP('',(#354));
#758=EDGE_LOOP('',(#355));
#759=EDGE_LOOP('',(#356,#357,#358,#359));
#760=EDGE_LOOP('',(#360,#361,#362,#363));
#761=EDGE_LOOP('',(#364,#365,#366,#367));
#762=EDGE_LOOP('',(#368,#369,#370,#371));
#763=EDGE_LOOP('',(#372,#373,#374,#375));
#764=EDGE_LOOP('',(#376,#377,#378,#379));
#765=EDGE_LOOP('',(#380,#381,#382,#383,#384,#385));
#766=FACE_BOUND('',#644,.T.);
#767=FACE_BOUND('',#645,.T.);
#768=FACE_BOUND('',#646,.T.);
#769=FACE_BOUND('',#647,.T.);
#770=FACE_BOUND('',#648,.T.);
#771=FACE_BOUND('',#649,.T.);
#772=FACE_BOUND('',#650,.T.);
#773=FACE_BOUND('',#651,.T.);
#774=FACE_BOUND('',#652,.T.);
#775=FACE_BOUND('',#653,.T.);
#776=FACE_BOUND('',#654,.T.);
#777=FACE_BOUND('',#655,.T.);
#778=FACE_BOUND('',#656,.T.);
#779=FACE_BOUND('',#657,.T.);
#780=FACE_BOUND('',#658,.T.);
#781=FACE_BOUND('',#659,.T.);
#782=FACE_BOUND('',#660,.T.);
#783=FACE_BOUND('',#661,.T.);
#784=FACE_BOUND('',#662,.T.);
#785=FACE_BOUND('',#663,.T.);
#786=FACE_BOUND('',#664,.T.);
#787=FACE_BOUND('',#665,.T.);
#788=FACE_BOUND('',#666,.T.);
#789=FACE_BOUND('',#667,.T.);
#790=FACE_BOUND('',#668,.T.);
#791=FACE_BOUND('',#669,.T.);
#792=FACE_BOUND('',#670,.T.);
#793=FACE_BOUND('',#671,.T.);
#794=FACE_BOUND('',#672,.T.);
#795=FACE_BOUND('',#673,.T.);
#796=FACE_BOUND('',#674,.T.);
#797=FACE_BOUND('',#675,.T.);
#798=FACE_BOUND('',#676,.T.);
#799=FACE_BOUND('',#677,.T.);
#800=FACE_BOUND('',#678,.T.);
#801=FACE_BOUND('',#679,.T.);
#802=FACE_BOUND('',#680,.T.);
#803=FACE_BOUND('',#681,.T.);
#804=FACE_BOUND('',#682,.T.);
#805=FACE_BOUND('',#683,.T.);
#806=FACE_BOUND('',#684,.T.);
#807=FACE_BOUND('',#685,.T.);
#808=FACE_BOUND('',#686,.T.);
#809=FACE_BOUND('',#687,.T.);
#810=FACE_BOUND('',#688,.T.);
#811=FACE_BOUND('',#689,.T.);
#812=FACE_BOUND('',#690,.T.);
#813=FACE_BOUND('',#691,.T.);
#814=FACE_BOUND('',#692,.T.);
#815=FACE_BOUND('',#693,.T.);
#816=FACE_BOUND('',#694,.T.);
#817=FACE_BOUND('',#695,.T.);
#818=FACE_BOUND('',#696,.T.);
#819=FACE_BOUND('',#697,.T.);
#820=FACE_BOUND('',#698,.T.);
#821=FACE_BOUND('',#699,.T.);
#822=FACE_BOUND('',#700,.T.);
#823=FACE_BOUND('',#701,.T.);
#824=FACE_BOUND('',#702,.T.);
#825=FACE_BOUND('',#703,.T.);
#826=FACE_BOUND('',#704,.T.);
#827=FACE_BOUND('',#705,.T.);
#828=FACE_BOUND('',#706,.T.);
#829=FACE_BOUND('',#707,.T.);
#830=FACE_BOUND('',#708,.T.);
#831=FACE_BOUND('',#709,.T.);
#832=FACE_BOUND('',#710,.T.);
#833=FACE_BOUND('',#711,.T.);
#834=FACE_BOUND('',#712,.T.);
#835=FACE_BOUND('',#713,.T.);
#836=FACE_BOUND('',#714,.T.);
#837=FACE_BOUND('',#715,.T.);
#838=FACE_BOUND('',#716,.T.);
#839=FACE_BOUND('',#717,.T.);
#840=FACE_BOUND('',#718,.T.);
#841=FACE_BOUND('',#719,.T.);
#842=FACE_BOUND('',#720,.T.);
#843=FACE_BOUND('',#721,.T.);
#844=FACE_BOUND('',#722,.T.);
#845=FACE_BOUND('',#723,.T.);
#846=FACE_BOUND('',#724,.T.);
#847=FACE_BOUND('',#725,.T.);
#848=FACE_BOUND('',#726,.T.);
#849=FACE_BOUND('',#727,.T.);
#850=FACE_BOUND('',#728,.T.);
#851=FACE_BOUND('',#729,.T.);
#852=FACE_BOUND('',#730,.T.);
#853=FACE_BOUND('',#731,.T.);
#854=FACE_BOUND('',#732,.T.);
#855=FACE_BOUND('',#733,.T.);
#856=FACE_BOUND('',#734,.T.);
#857=FACE_BOUND('',#735,.T.);
#858=FACE_BOUND('',#736,.T.);
#859=FACE_BOUND('',#737,.T.);
#860=FACE_BOUND('',#738,.T.);
#861=FACE_BOUND('',#739,.T.);
#862=FACE_BOUND('',#740,.T.);
#863=FACE_BOUND('',#741,.T.);
#864=FACE_BOUND('',#742,.T.);
#865=FACE_BOUND('',#743,.T.);
#866=FACE_BOUND('',#744,.T.);
#867=FACE_BOUND('',#745,.T.);
#868=FACE_BOUND('',#746,.T.);
#869=FACE_BOUND('',#747,.T.);
#870=FACE_BOUND('',#748,.T.);
#871=FACE_BOUND('',#749,.T.);
#872=FACE_BOUND('',#750,.T.);
#873=FACE_BOUND('',#751,.T.);
#874=FACE_BOUND('',#752,.T.);
#875=FACE_BOUND('',#753,.T.);
#876=FACE_BOUND('',#754,.T.);
#877=FACE_BOUND('',#755,.T.);
#878=FACE_BOUND('',#756,.T.);
#879=FACE_BOUND('',#757,.T.);
#880=FACE_BOUND('',#758,.T.);
#881=FACE_BOUND('',#759,.T.);
#882=FACE_BOUND('',#760,.T.);
#883=FACE_BOUND('',#761,.T.);
#884=FACE_BOUND('',#762,.T.);
#885=FACE_BOUND('',#763,.T.);
#886=FACE_BOUND('',#764,.T.);
#887=FACE_BOUND('',#765,.T.);
#888=PLANE('',#1260);
#889=PLANE('',#1261);
#890=PLANE('',#1262);
#891=PLANE('',#1263);
#892=PLANE('',#1264);
#893=PLANE('',#1273);
#894=PLANE('',#1282);
#895=PLANE('',#1283);
#896=PLANE('',#1284);
#897=PLANE('',#1285);
#898=PLANE('',#1307);
#899=PLANE('',#1309);
#900=PLANE('',#1325);
#901=PLANE('',#1326);
#902=PLANE('',#1331);
#903=PLANE('',#1337);
#904=PLANE('',#1347);
#905=PLANE('',#1350);
#906=PLANE('',#1357);
#907=PLANE('',#1362);
#908=PLANE('',#1367);
#909=PLANE('',#1372);
#910=PLANE('',#1373);
#911=PLANE('',#1374);
#912=PLANE('',#1375);
#913=PLANE('',#1376);
#914=PLANE('',#1377);
#915=PLANE('',#1378);
#916=STYLED_ITEM('',(#952),#1171);
#917=STYLED_ITEM('',(#953),#1172);
#918=STYLED_ITEM('',(#954),#1173);
#919=STYLED_ITEM('',(#955),#1174);
#920=STYLED_ITEM('',(#956),#1175);
#921=STYLED_ITEM('',(#957),#1176);
#922=STYLED_ITEM('',(#958),#1177);
#923=STYLED_ITEM('',(#959),#1178);
#924=STYLED_ITEM('',(#960),#1179);
#925=STYLED_ITEM('',(#961),#1180);
#926=STYLED_ITEM('',(#962),#1181);
#927=STYLED_ITEM('',(#963),#1182);
#928=STYLED_ITEM('',(#964),#1183);
#929=STYLED_ITEM('',(#965),#1184);
#930=STYLED_ITEM('',(#966),#1185);
#931=STYLED_ITEM('',(#967),#1186);
#932=STYLED_ITEM('',(#968),#1187);
#933=STYLED_ITEM('',(#969),#1188);
#934=STYLED_ITEM('',(#970),#1239);
#935=STYLED_ITEM('',(#971),#1240);
#936=STYLED_ITEM('',(#972),#1243);
#937=STYLED_ITEM('',(#973),#1216);
#938=STYLED_ITEM('',(#974),#1217);
#939=STYLED_ITEM('',(#975),#1218);
#940=STYLED_ITEM('',(#976),#1219);
#941=STYLED_ITEM('',(#977),#1220);
#942=STYLED_ITEM('',(#978),#1221);
#943=STYLED_ITEM('',(#979),#1222);
#944=STYLED_ITEM('',(#980),#1223);
#945=STYLED_ITEM('',(#981),#1224);
#946=STYLED_ITEM('',(#982),#1225);
#947=STYLED_ITEM('',(#983),#1226);
#948=STYLED_ITEM('',(#984),#1227);
#949=STYLED_ITEM('',(#985),#1228);
#950=STYLED_ITEM('',(#986),#1229);
#951=STYLED_ITEM('',(#987),#1230);
#952=PRESENTATION_STYLE_ASSIGNMENT((#988));
#953=PRESENTATION_STYLE_ASSIGNMENT((#989));
#954=PRESENTATION_STYLE_ASSIGNMENT((#990));
#955=PRESENTATION_STYLE_ASSIGNMENT((#991));
#956=PRESENTATION_STYLE_ASSIGNMENT((#992));
#957=PRESENTATION_STYLE_ASSIGNMENT((#993));
#958=PRESENTATION_STYLE_ASSIGNMENT((#994));
#959=PRESENTATION_STYLE_ASSIGNMENT((#995));
#960=PRESENTATION_STYLE_ASSIGNMENT((#996));
#961=PRESENTATION_STYLE_ASSIGNMENT((#997));
#962=PRESENTATION_STYLE_ASSIGNMENT((#998));
#963=PRESENTATION_STYLE_ASSIGNMENT((#999));
#964=PRESENTATION_STYLE_ASSIGNMENT((#1000));
#965=PRESENTATION_STYLE_ASSIGNMENT((#1001));
#966=PRESENTATION_STYLE_ASSIGNMENT((#1002));
#967=PRESENTATION_STYLE_ASSIGNMENT((#1003));
#968=PRESENTATION_STYLE_ASSIGNMENT((#1004));
#969=PRESENTATION_STYLE_ASSIGNMENT((#1005));
#970=PRESENTATION_STYLE_ASSIGNMENT((#1006));
#971=PRESENTATION_STYLE_ASSIGNMENT((#1007));
#972=PRESENTATION_STYLE_ASSIGNMENT((#1008));
#973=PRESENTATION_STYLE_ASSIGNMENT((#1009));
#974=PRESENTATION_STYLE_ASSIGNMENT((#1010));
#975=PRESENTATION_STYLE_ASSIGNMENT((#1011));
#976=PRESENTATION_STYLE_ASSIGNMENT((#1012));
#977=PRESENTATION_STYLE_ASSIGNMENT((#1013));
#978=PRESENTATION_STYLE_ASSIGNMENT((#1014));
#979=PRESENTATION_STYLE_ASSIGNMENT((#1015));
#980=PRESENTATION_STYLE_ASSIGNMENT((#1016));
#981=PRESENTATION_STYLE_ASSIGNMENT((#1017));
#982=PRESENTATION_STYLE_ASSIGNMENT((#1018));
#983=PRESENTATION_STYLE_ASSIGNMENT((#1019));
#984=PRESENTATION_STYLE_ASSIGNMENT((#1020));
#985=PRESENTATION_STYLE_ASSIGNMENT((#1021));
#986=PRESENTATION_STYLE_ASSIGNMENT((#1022));
#987=PRESENTATION_STYLE_ASSIGNMENT((#1023));
#988=SURFACE_STYLE_USAGE(.BOTH.,#1024);
#989=SURFACE_STYLE_USAGE(.BOTH.,#1025);
#990=SURFACE_STYLE_USAGE(.BOTH.,#1026);
#991=SURFACE_STYLE_USAGE(.BOTH.,#1027);
#992=SURFACE_STYLE_USAGE(.BOTH.,#1028);
#993=SURFACE_STYLE_USAGE(.BOTH.,#1029);
#994=SURFACE_STYLE_USAGE(.BOTH.,#1030);
#995=SURFACE_STYLE_USAGE(.BOTH.,#1031);
#996=SURFACE_STYLE_USAGE(.BOTH.,#1032);
#997=SURFACE_STYLE_USAGE(.BOTH.,#1033);
#998=SURFACE_STYLE_USAGE(.BOTH.,#1034);
#999=SURFACE_STYLE_USAGE(.BOTH.,#1035);
#1000=SURFACE_STYLE_USAGE(.BOTH.,#1036);
#1001=SURFACE_STYLE_USAGE(.BOTH.,#1037);
#1002=SURFACE_STYLE_USAGE(.BOTH.,#1038);
#1003=SURFACE_STYLE_USAGE(.BOTH.,#1039);
#1004=SURFACE_STYLE_USAGE(.BOTH.,#1040);
#1005=SURFACE_STYLE_USAGE(.BOTH.,#1041);
#1006=SURFACE_STYLE_USAGE(.BOTH.,#1042);
#1007=SURFACE_STYLE_USAGE(.BOTH.,#1043);
#1008=SURFACE_STYLE_USAGE(.BOTH.,#1044);
#1009=SURFACE_STYLE_USAGE(.BOTH.,#1045);
#1010=SURFACE_STYLE_USAGE(.BOTH.,#1046);
#1011=SURFACE_STYLE_USAGE(.BOTH.,#1047);
#1012=SURFACE_STYLE_USAGE(.BOTH.,#1048);
#1013=SURFACE_STYLE_USAGE(.BOTH.,#1049);
#1014=SURFACE_STYLE_USAGE(.BOTH.,#1050);
#1015=SURFACE_STYLE_USAGE(.BOTH.,#1051);
#1016=SURFACE_STYLE_USAGE(.BOTH.,#1052);
#1017=SURFACE_STYLE_USAGE(.BOTH.,#1053);
#1018=SURFACE_STYLE_USAGE(.BOTH.,#1054);
#1019=SURFACE_STYLE_USAGE(.BOTH.,#1055);
#1020=SURFACE_STYLE_USAGE(.BOTH.,#1056);
#1021=SURFACE_STYLE_USAGE(.BOTH.,#1057);
#1022=SURFACE_STYLE_USAGE(.BOTH.,#1058);
#1023=SURFACE_STYLE_USAGE(.BOTH.,#1059);
#1024=SURFACE_SIDE_STYLE('',(#1060));
#1025=SURFACE_SIDE_STYLE('',(#1061));
#1026=SURFACE_SIDE_STYLE('',(#1062));
#1027=SURFACE_SIDE_STYLE('',(#1063));
#1028=SURFACE_SIDE_STYLE('',(#1064));
#1029=SURFACE_SIDE_STYLE('',(#1065));
#1030=SURFACE_SIDE_STYLE('',(#1066));
#1031=SURFACE_SIDE_STYLE('',(#1067));
#1032=SURFACE_SIDE_STYLE('',(#1068));
#1033=SURFACE_SIDE_STYLE('',(#1069));
#1034=SURFACE_SIDE_STYLE('',(#1070));
#1035=SURFACE_SIDE_STYLE('',(#1071));
#1036=SURFACE_SIDE_STYLE('',(#1072));
#1037=SURFACE_SIDE_STYLE('',(#1073));
#1038=SURFACE_SIDE_STYLE('',(#1074));
#1039=SURFACE_SIDE_STYLE('',(#1075));
#1040=SURFACE_SIDE_STYLE('',(#1076));
#1041=SURFACE_SIDE_STYLE('',(#1077));
#1042=SURFACE_SIDE_STYLE('',(#1078));
#1043=SURFACE_SIDE_STYLE('',(#1079));
#1044=SURFACE_SIDE_STYLE('',(#1080));
#1045=SURFACE_SIDE_STYLE('',(#1081));
#1046=SURFACE_SIDE_STYLE('',(#1082));
#1047=SURFACE_SIDE_STYLE('',(#1083));
#1048=SURFACE_SIDE_STYLE('',(#1084));
#1049=SURFACE_SIDE_STYLE('',(#1085));
#1050=SURFACE_SIDE_STYLE('',(#1086));
#1051=SURFACE_SIDE_STYLE('',(#1087));
#1052=SURFACE_SIDE_STYLE('',(#1088));
#1053=SURFACE_SIDE_STYLE('',(#1089));
#1054=SURFACE_SIDE_STYLE('',(#1090));
#1055=SURFACE_SIDE_STYLE('',(#1091));
#1056=SURFACE_SIDE_STYLE('',(#1092));
#1057=SURFACE_SIDE_STYLE('',(#1093));
#1058=SURFACE_SIDE_STYLE('',(#1094));
#1059=SURFACE_SIDE_STYLE('',(#1095));
#1060=SURFACE_STYLE_FILL_AREA(#1096);
#1061=SURFACE_STYLE_FILL_AREA(#1097);
#1062=SURFACE_STYLE_FILL_AREA(#1098);
#1063=SURFACE_STYLE_FILL_AREA(#1099);
#1064=SURFACE_STYLE_FILL_AREA(#1100);
#1065=SURFACE_STYLE_FILL_AREA(#1101);
#1066=SURFACE_STYLE_FILL_AREA(#1102);
#1067=SURFACE_STYLE_FILL_AREA(#1103);
#1068=SURFACE_STYLE_FILL_AREA(#1104);
#1069=SURFACE_STYLE_FILL_AREA(#1105);
#1070=SURFACE_STYLE_FILL_AREA(#1106);
#1071=SURFACE_STYLE_FILL_AREA(#1107);
#1072=SURFACE_STYLE_FILL_AREA(#1108);
#1073=SURFACE_STYLE_FILL_AREA(#1109);
#1074=SURFACE_STYLE_FILL_AREA(#1110);
#1075=SURFACE_STYLE_FILL_AREA(#1111);
#1076=SURFACE_STYLE_FILL_AREA(#1112);
#1077=SURFACE_STYLE_FILL_AREA(#1113);
#1078=SURFACE_STYLE_FILL_AREA(#1114);
#1079=SURFACE_STYLE_FILL_AREA(#1115);
#1080=SURFACE_STYLE_FILL_AREA(#1116);
#1081=SURFACE_STYLE_FILL_AREA(#1117);
#1082=SURFACE_STYLE_FILL_AREA(#1118);
#1083=SURFACE_STYLE_FILL_AREA(#1119);
#1084=SURFACE_STYLE_FILL_AREA(#1120);
#1085=SURFACE_STYLE_FILL_AREA(#1121);
#1086=SURFACE_STYLE_FILL_AREA(#1122);
#1087=SURFACE_STYLE_FILL_AREA(#1123);
#1088=SURFACE_STYLE_FILL_AREA(#1124);
#1089=SURFACE_STYLE_FILL_AREA(#1125);
#1090=SURFACE_STYLE_FILL_AREA(#1126);
#1091=SURFACE_STYLE_FILL_AREA(#1127);
#1092=SURFACE_STYLE_FILL_AREA(#1128);
#1093=SURFACE_STYLE_FILL_AREA(#1129);
#1094=SURFACE_STYLE_FILL_AREA(#1130);
#1095=SURFACE_STYLE_FILL_AREA(#1131);
#1096=FILL_AREA_STYLE('',(#1132));
#1097=FILL_AREA_STYLE('',(#1133));
#1098=FILL_AREA_STYLE('',(#1134));
#1099=FILL_AREA_STYLE('',(#1135));
#1100=FILL_AREA_STYLE('',(#1136));
#1101=FILL_AREA_STYLE('',(#1137));
#1102=FILL_AREA_STYLE('',(#1138));
#1103=FILL_AREA_STYLE('',(#1139));
#1104=FILL_AREA_STYLE('',(#1140));
#1105=FILL_AREA_STYLE('',(#1141));
#1106=FILL_AREA_STYLE('',(#1142));
#1107=FILL_AREA_STYLE('',(#1143));
#1108=FILL_AREA_STYLE('',(#1144));
#1109=FILL_AREA_STYLE('',(#1145));
#1110=FILL_AREA_STYLE('',(#1146));
#1111=FILL_AREA_STYLE('',(#1147));
#1112=FILL_AREA_STYLE('',(#1148));
#1113=FILL_AREA_STYLE('',(#1149));
#1114=FILL_AREA_STYLE('',(#1150));
#1115=FILL_AREA_STYLE('',(#1151));
#1116=FILL_AREA_STYLE('',(#1152));
#1117=FILL_AREA_STYLE('',(#1153));
#1118=FILL_AREA_STYLE('',(#1154));
#1119=FILL_AREA_STYLE('',(#1155));
#1120=FILL_AREA_STYLE('',(#1156));
#1121=FILL_AREA_STYLE('',(#1157));
#1122=FILL_AREA_STYLE('',(#1158));
#1123=FILL_AREA_STYLE('',(#1159));
#1124=FILL_AREA_STYLE('',(#1160));
#1125=FILL_AREA_STYLE('',(#1161));
#1126=FILL_AREA_STYLE('',(#1162));
#1127=FILL_AREA_STYLE('',(#1163));
#1128=FILL_AREA_STYLE('',(#1164));
#1129=FILL_AREA_STYLE('',(#1165));
#1130=FILL_AREA_STYLE('',(#1166));
#1131=FILL_AREA_STYLE('',(#1167));
#1132=FILL_AREA_STYLE_COLOUR('',#1168);
#1133=FILL_AREA_STYLE_COLOUR('',#1168);
#1134=FILL_AREA_STYLE_COLOUR('',#1168);
#1135=FILL_AREA_STYLE_COLOUR('',#1168);
#1136=FILL_AREA_STYLE_COLOUR('',#1168);
#1137=FILL_AREA_STYLE_COLOUR('',#1168);
#1138=FILL_AREA_STYLE_COLOUR('',#1168);
#1139=FILL_AREA_STYLE_COLOUR('',#1168);
#1140=FILL_AREA_STYLE_COLOUR('',#1168);
#1141=FILL_AREA_STYLE_COLOUR('',#1168);
#1142=FILL_AREA_STYLE_COLOUR('',#1169);
#1143=FILL_AREA_STYLE_COLOUR('',#1169);
#1144=FILL_AREA_STYLE_COLOUR('',#1169);
#1145=FILL_AREA_STYLE_COLOUR('',#1169);
#1146=FILL_AREA_STYLE_COLOUR('',#1169);
#1147=FILL_AREA_STYLE_COLOUR('',#1169);
#1148=FILL_AREA_STYLE_COLOUR('',#1169);
#1149=FILL_AREA_STYLE_COLOUR('',#1169);
#1150=FILL_AREA_STYLE_COLOUR('',#1168);
#1151=FILL_AREA_STYLE_COLOUR('',#1168);
#1152=FILL_AREA_STYLE_COLOUR('',#1168);
#1153=FILL_AREA_STYLE_COLOUR('',#1170);
#1154=FILL_AREA_STYLE_COLOUR('',#1169);
#1155=FILL_AREA_STYLE_COLOUR('',#1170);
#1156=FILL_AREA_STYLE_COLOUR('',#1170);
#1157=FILL_AREA_STYLE_COLOUR('',#1170);
#1158=FILL_AREA_STYLE_COLOUR('',#1170);
#1159=FILL_AREA_STYLE_COLOUR('',#1170);
#1160=FILL_AREA_STYLE_COLOUR('',#1170);
#1161=FILL_AREA_STYLE_COLOUR('',#1170);
#1162=FILL_AREA_STYLE_COLOUR('',#1170);
#1163=FILL_AREA_STYLE_COLOUR('',#1170);
#1164=FILL_AREA_STYLE_COLOUR('',#1170);
#1165=FILL_AREA_STYLE_COLOUR('',#1170);
#1166=FILL_AREA_STYLE_COLOUR('',#1170);
#1167=FILL_AREA_STYLE_COLOUR('',#1170);
#1168=COLOUR_RGB('',0.331739127635956,0.340869575738907,0.349999994039536);
#1169=COLOUR_RGB('',0.1875,0.75,0.581249892711639);
#1170=COLOUR_RGB('',0.506983280181885,0.531564235687256,0.550000011920929);
#1171=ADVANCED_FACE('',(#766),#888,.F.);
#1172=ADVANCED_FACE('',(#767),#889,.F.);
#1173=ADVANCED_FACE('',(#768),#890,.F.);
#1174=ADVANCED_FACE('',(#769),#891,.F.);
#1175=ADVANCED_FACE('',(#770,#771,#772,#773,#774,#775,#776,#777,#778),#892,
 .T.);
#1176=ADVANCED_FACE('',(#779,#780,#781,#782,#783,#784,#785,#786,#787),#893,
 .F.);
#1177=ADVANCED_FACE('',(#788),#894,.F.);
#1178=ADVANCED_FACE('',(#789),#895,.F.);
#1179=ADVANCED_FACE('',(#790),#896,.F.);
#1180=ADVANCED_FACE('',(#791),#897,.F.);
#1181=ADVANCED_FACE('',(#792,#793),#124,.F.);
#1182=ADVANCED_FACE('',(#794,#795),#125,.F.);
#1183=ADVANCED_FACE('',(#796,#797),#126,.F.);
#1184=ADVANCED_FACE('',(#798,#799),#127,.F.);
#1185=ADVANCED_FACE('',(#800,#801),#128,.F.);
#1186=ADVANCED_FACE('',(#802,#803),#129,.F.);
#1187=ADVANCED_FACE('',(#804,#805),#130,.F.);
#1188=ADVANCED_FACE('',(#806,#807),#131,.F.);
#1189=ADVANCED_FACE('',(#808,#809),#132,.F.);
#1190=ADVANCED_FACE('',(#810,#811),#133,.F.);
#1191=ADVANCED_FACE('',(#812,#813),#134,.F.);
#1192=ADVANCED_FACE('',(#814,#815),#135,.T.);
#1193=ADVANCED_FACE('',(#816,#817,#818,#819,#820),#898,.T.);
#1194=ADVANCED_FACE('',(#821,#822,#823,#824,#825),#899,.F.);
#1195=ADVANCED_FACE('',(#826,#827),#136,.F.);
#1196=ADVANCED_FACE('',(#828,#829),#137,.T.);
#1197=ADVANCED_FACE('',(#830,#831),#26,.T.);
#1198=ADVANCED_FACE('',(#832,#833),#138,.T.);
#1199=ADVANCED_FACE('',(#834,#835),#27,.T.);
#1200=ADVANCED_FACE('',(#836,#837),#139,.T.);
#1201=ADVANCED_FACE('',(#838),#900,.F.);
#1202=ADVANCED_FACE('',(#839),#901,.T.);
#1203=ADVANCED_FACE('',(#840,#841),#140,.F.);
#1204=ADVANCED_FACE('',(#842,#843),#902,.T.);
#1205=ADVANCED_FACE('',(#844,#845),#18,.T.);
#1206=ADVANCED_FACE('',(#846,#847),#141,.F.);
#1207=ADVANCED_FACE('',(#848,#849),#903,.T.);
#1208=ADVANCED_FACE('',(#850,#851),#19,.T.);
#1209=ADVANCED_FACE('',(#852,#853),#142,.F.);
#1210=ADVANCED_FACE('',(#854,#855),#143,.T.);
#1211=ADVANCED_FACE('',(#856,#857),#904,.F.);
#1212=ADVANCED_FACE('',(#858,#859),#905,.T.);
#1213=ADVANCED_FACE('',(#860,#861),#20,.F.);
#1214=ADVANCED_FACE('',(#862,#863),#21,.F.);
#1215=ADVANCED_FACE('',(#864,#865),#22,.T.);
#1216=ADVANCED_FACE('',(#866),#906,.T.);
#1217=ADVANCED_FACE('',(#867,#868),#144,.T.);
#1218=ADVANCED_FACE('',(#869,#870),#907,.T.);
#1219=ADVANCED_FACE('',(#871,#872),#145,.T.);
#1220=ADVANCED_FACE('',(#873,#874),#908,.T.);
#1221=ADVANCED_FACE('',(#875,#876),#23,.T.);
#1222=ADVANCED_FACE('',(#877,#878),#24,.T.);
#1223=ADVANCED_FACE('',(#879,#880),#25,.T.);
#1224=ADVANCED_FACE('',(#881),#909,.F.);
#1225=ADVANCED_FACE('',(#882),#910,.F.);
#1226=ADVANCED_FACE('',(#883),#911,.F.);
#1227=ADVANCED_FACE('',(#884),#912,.F.);
#1228=ADVANCED_FACE('',(#885),#913,.F.);
#1229=ADVANCED_FACE('',(#886),#914,.F.);
#1230=ADVANCED_FACE('',(#887),#915,.T.);
#1231=CLOSED_SHELL('',(#1171,#1172,#1173,#1174,#1175,#1176,#1177,#1178,
#1179,#1180,#1181,#1182,#1183,#1184,#1185,#1186,#1187,#1188));
#1232=CLOSED_SHELL('',(#1189,#1190,#1191,#1192,#1193,#1194,#1195));
#1233=CLOSED_SHELL('',(#1196,#1197,#1198,#1199,#1200,#1201,#1202));
#1234=CLOSED_SHELL('',(#1203,#1204,#1205));
#1235=CLOSED_SHELL('',(#1206,#1207,#1208));
#1236=CLOSED_SHELL('',(#1209,#1210,#1211,#1212,#1213,#1214,#1215));
#1237=CLOSED_SHELL('',(#1216,#1217,#1218,#1219,#1220,#1221,#1222,#1223,
#1224,#1225,#1226,#1227,#1228,#1229,#1230));
#1238=MANIFOLD_SOLID_BREP('',#1231);
#1239=MANIFOLD_SOLID_BREP('',#1232);
#1240=MANIFOLD_SOLID_BREP('',#1233);
#1241=MANIFOLD_SOLID_BREP('',#1234);
#1242=MANIFOLD_SOLID_BREP('',#1235);
#1243=MANIFOLD_SOLID_BREP('',#1236);
#1244=MANIFOLD_SOLID_BREP('',#1237);
#1245=SHAPE_DEFINITION_REPRESENTATION(#1978,#1252);
#1246=SHAPE_DEFINITION_REPRESENTATION(#1977,#1253);
#1247=SHAPE_DEFINITION_REPRESENTATION(#1980,#1254);
#1248=SHAPE_DEFINITION_REPRESENTATION(#1983,#1255);
#1249=SHAPE_DEFINITION_REPRESENTATION(#1985,#1256);
#1250=SHAPE_DEFINITION_REPRESENTATION(#1987,#1257);
#1251=SHAPE_DEFINITION_REPRESENTATION(#1990,#1258);
#1252=SHAPE_REPRESENTATION('Bottom Plate',(#1259),#1961);
#1253=SHAPE_REPRESENTATION('Handel',(#1259,#1294,#1312,#1313,#1327,#1340,
#1355,#1356,#1379,#1380,#1381,#1382,#1383,#1384,#1385,#1386,#1387,#1388,
#1389,#1390,#1391,#1392),#1960);
#1254=SHAPE_REPRESENTATION('Bottom Plate-2',(#1259),#1962);
#1255=SHAPE_REPRESENTATION('Handel',(#1259),#1963);
#1256=SHAPE_REPRESENTATION('Handel_442_445_Fillet 1_oa_0',(#1259),#1964);
#1257=SHAPE_REPRESENTATION('Washer M5',(#1259),#1965);
#1258=SHAPE_REPRESENTATION('Al .HD.-M5x10 mm. Lg.',(#1259),#1966);
#1259=AXIS2_PLACEMENT_3D('',#1703,#1393,#1394);
#1260=AXIS2_PLACEMENT_3D('',#1704,#1395,#1396);
#1261=AXIS2_PLACEMENT_3D('',#1713,#1401,#1402);
#1262=AXIS2_PLACEMENT_3D('',#1722,#1407,#1408);
#1263=AXIS2_PLACEMENT_3D('',#1731,#1413,#1414);
#1264=AXIS2_PLACEMENT_3D('',#1740,#1419,#1420);
#1265=AXIS2_PLACEMENT_3D('',#1741,#1421,#1422);
#1266=AXIS2_PLACEMENT_3D('',#1743,#1423,#1424);
#1267=AXIS2_PLACEMENT_3D('',#1745,#1425,#1426);
#1268=AXIS2_PLACEMENT_3D('',#1747,#1427,#1428);
#1269=AXIS2_PLACEMENT_3D('',#1749,#1429,#1430);
#1270=AXIS2_PLACEMENT_3D('',#1751,#1431,#1432);
#1271=AXIS2_PLACEMENT_3D('',#1753,#1433,#1434);
#1272=AXIS2_PLACEMENT_3D('',#1755,#1435,#1436);
#1273=AXIS2_PLACEMENT_3D('',#1761,#1441,#1442);
#1274=AXIS2_PLACEMENT_3D('',#1762,#1443,#1444);
#1275=AXIS2_PLACEMENT_3D('',#1764,#1445,#1446);
#1276=AXIS2_PLACEMENT_3D('',#1766,#1447,#1448);
#1277=AXIS2_PLACEMENT_3D('',#1768,#1449,#1450);
#1278=AXIS2_PLACEMENT_3D('',#1770,#1451,#1452);
#1279=AXIS2_PLACEMENT_3D('',#1772,#1453,#1454);
#1280=AXIS2_PLACEMENT_3D('',#1774,#1455,#1456);
#1281=AXIS2_PLACEMENT_3D('',#1776,#1457,#1458);
#1282=AXIS2_PLACEMENT_3D('',#1782,#1463,#1464);
#1283=AXIS2_PLACEMENT_3D('',#1783,#1465,#1466);
#1284=AXIS2_PLACEMENT_3D('',#1784,#1467,#1468);
#1285=AXIS2_PLACEMENT_3D('',#1785,#1469,#1470);
#1286=AXIS2_PLACEMENT_3D('',#1786,#1471,#1472);
#1287=AXIS2_PLACEMENT_3D('',#1787,#1473,#1474);
#1288=AXIS2_PLACEMENT_3D('',#1788,#1475,#1476);
#1289=AXIS2_PLACEMENT_3D('',#1789,#1477,#1478);
#1290=AXIS2_PLACEMENT_3D('',#1790,#1479,#1480);
#1291=AXIS2_PLACEMENT_3D('',#1791,#1481,#1482);
#1292=AXIS2_PLACEMENT_3D('',#1792,#1483,#1484);
#1293=AXIS2_PLACEMENT_3D('',#1793,#1485,#1486);
#1294=AXIS2_PLACEMENT_3D('',#1794,#1487,#1488);
#1295=AXIS2_PLACEMENT_3D('',#1795,#1489,#1490);
#1296=AXIS2_PLACEMENT_3D('',#1796,#1491,#1492);
#1297=AXIS2_PLACEMENT_3D('',#1798,#1493,#1494);
#1298=AXIS2_PLACEMENT_3D('',#1800,#1495,#1496);
#1299=AXIS2_PLACEMENT_3D('',#1801,#1497,#1498);
#1300=AXIS2_PLACEMENT_3D('',#1803,#1499,#1500);
#1301=AXIS2_PLACEMENT_3D('',#1805,#1501,#1502);
#1302=AXIS2_PLACEMENT_3D('',#1806,#1503,#1504);
#1303=AXIS2_PLACEMENT_3D('',#1808,#1505,#1506);
#1304=AXIS2_PLACEMENT_3D('',#1810,#1507,#1508);
#1305=AXIS2_PLACEMENT_3D('',#1811,#1509,#1510);
#1306=AXIS2_PLACEMENT_3D('',#1813,#1511,#1512);
#1307=AXIS2_PLACEMENT_3D('',#1815,#1513,#1514);
#1308=AXIS2_PLACEMENT_3D('',#1816,#1515,#1516);
#1309=AXIS2_PLACEMENT_3D('',#1818,#1517,#1518);
#1310=AXIS2_PLACEMENT_3D('',#1819,#1519,#1520);
#1311=AXIS2_PLACEMENT_3D('',#1821,#1521,#1522);
#1312=AXIS2_PLACEMENT_3D('',#1822,#1523,#1524);
#1313=AXIS2_PLACEMENT_3D('',#1823,#1525,#1526);
#1314=AXIS2_PLACEMENT_3D('',#1824,#1527,#1528);
#1315=AXIS2_PLACEMENT_3D('',#1825,#1529,#1530);
#1316=AXIS2_PLACEMENT_3D('',#1827,#1531,#1532);
#1317=AXIS2_PLACEMENT_3D('',#1829,#1533,#1534);
#1318=AXIS2_PLACEMENT_3D('',#1830,#1535,#1536);
#1319=AXIS2_PLACEMENT_3D('',#1832,#1537,#1538);
#1320=AXIS2_PLACEMENT_3D('',#1833,#1539,#1540);
#1321=AXIS2_PLACEMENT_3D('',#1835,#1541,#1542);
#1322=AXIS2_PLACEMENT_3D('',#1836,#1543,#1544);
#1323=AXIS2_PLACEMENT_3D('',#1838,#1545,#1546);
#1324=AXIS2_PLACEMENT_3D('',#1839,#1547,#1548);
#1325=AXIS2_PLACEMENT_3D('',#1841,#1549,#1550);
#1326=AXIS2_PLACEMENT_3D('',#1842,#1551,#1552);
#1327=AXIS2_PLACEMENT_3D('',#1843,#1553,#1554);
#1328=AXIS2_PLACEMENT_3D('',#1844,#1555,#1556);
#1329=AXIS2_PLACEMENT_3D('',#1845,#1557,#1558);
#1330=AXIS2_PLACEMENT_3D('',#1847,#1559,#1560);
#1331=AXIS2_PLACEMENT_3D('',#1849,#1561,#1562);
#1332=AXIS2_PLACEMENT_3D('',#1850,#1563,#1564);
#1333=AXIS2_PLACEMENT_3D('',#1852,#1565,#1566);
#1334=AXIS2_PLACEMENT_3D('',#1853,#1567,#1568);
#1335=AXIS2_PLACEMENT_3D('',#1854,#1569,#1570);
#1336=AXIS2_PLACEMENT_3D('',#1856,#1571,#1572);
#1337=AXIS2_PLACEMENT_3D('',#1858,#1573,#1574);
#1338=AXIS2_PLACEMENT_3D('',#1859,#1575,#1576);
#1339=AXIS2_PLACEMENT_3D('',#1861,#1577,#1578);
#1340=AXIS2_PLACEMENT_3D('',#1862,#1579,#1580);
#1341=AXIS2_PLACEMENT_3D('',#1863,#1581,#1582);
#1342=AXIS2_PLACEMENT_3D('',#1864,#1583,#1584);
#1343=AXIS2_PLACEMENT_3D('',#1866,#1585,#1586);
#1344=AXIS2_PLACEMENT_3D('',#1868,#1587,#1588);
#1345=AXIS2_PLACEMENT_3D('',#1869,#1589,#1590);
#1346=AXIS2_PLACEMENT_3D('',#1871,#1591,#1592);
#1347=AXIS2_PLACEMENT_3D('',#1873,#1593,#1594);
#1348=AXIS2_PLACEMENT_3D('',#1874,#1595,#1596);
#1349=AXIS2_PLACEMENT_3D('',#1876,#1597,#1598);
#1350=AXIS2_PLACEMENT_3D('',#1878,#1599,#1600);
#1351=AXIS2_PLACEMENT_3D('',#1879,#1601,#1602);
#1352=AXIS2_PLACEMENT_3D('',#1881,#1603,#1604);
#1353=AXIS2_PLACEMENT_3D('',#1882,#1605,#1606);
#1354=AXIS2_PLACEMENT_3D('',#1883,#1607,#1608);
#1355=AXIS2_PLACEMENT_3D('',#1884,#1609,#1610);
#1356=AXIS2_PLACEMENT_3D('',#1885,#1611,#1612);
#1357=AXIS2_PLACEMENT_3D('',#1886,#1613,#1614);
#1358=AXIS2_PLACEMENT_3D('',#1887,#1615,#1616);
#1359=AXIS2_PLACEMENT_3D('',#1889,#1617,#1618);
#1360=AXIS2_PLACEMENT_3D('',#1890,#1619,#1620);
#1361=AXIS2_PLACEMENT_3D('',#1892,#1621,#1622);
#1362=AXIS2_PLACEMENT_3D('',#1894,#1623,#1624);
#1363=AXIS2_PLACEMENT_3D('',#1895,#1625,#1626);
#1364=AXIS2_PLACEMENT_3D('',#1897,#1627,#1628);
#1365=AXIS2_PLACEMENT_3D('',#1898,#1629,#1630);
#1366=AXIS2_PLACEMENT_3D('',#1900,#1631,#1632);
#1367=AXIS2_PLACEMENT_3D('',#1902,#1633,#1634);
#1368=AXIS2_PLACEMENT_3D('',#1915,#1641,#1642);
#1369=AXIS2_PLACEMENT_3D('',#1917,#1643,#1644);
#1370=AXIS2_PLACEMENT_3D('',#1918,#1645,#1646);
#1371=AXIS2_PLACEMENT_3D('',#1919,#1647,#1648);
#1372=AXIS2_PLACEMENT_3D('',#1920,#1649,#1650);
#1373=AXIS2_PLACEMENT_3D('',#1926,#1654,#1655);
#1374=AXIS2_PLACEMENT_3D('',#1930,#1658,#1659);
#1375=AXIS2_PLACEMENT_3D('',#1934,#1662,#1663);
#1376=AXIS2_PLACEMENT_3D('',#1938,#1666,#1667);
#1377=AXIS2_PLACEMENT_3D('',#1942,#1670,#1671);
#1378=AXIS2_PLACEMENT_3D('',#1944,#1673,#1674);
#1379=AXIS2_PLACEMENT_3D('',#1945,#1675,#1676);
#1380=AXIS2_PLACEMENT_3D('',#1946,#1677,#1678);
#1381=AXIS2_PLACEMENT_3D('',#1947,#1679,#1680);
#1382=AXIS2_PLACEMENT_3D('',#1948,#1681,#1682);
#1383=AXIS2_PLACEMENT_3D('',#1949,#1683,#1684);
#1384=AXIS2_PLACEMENT_3D('',#1950,#1685,#1686);
#1385=AXIS2_PLACEMENT_3D('',#1951,#1687,#1688);
#1386=AXIS2_PLACEMENT_3D('',#1952,#1689,#1690);
#1387=AXIS2_PLACEMENT_3D('',#1953,#1691,#1692);
#1388=AXIS2_PLACEMENT_3D('',#1954,#1693,#1694);
#1389=AXIS2_PLACEMENT_3D('',#1955,#1695,#1696);
#1390=AXIS2_PLACEMENT_3D('',#1956,#1697,#1698);
#1391=AXIS2_PLACEMENT_3D('',#1957,#1699,#1700);
#1392=AXIS2_PLACEMENT_3D('',#1958,#1701,#1702);
#1393=DIRECTION('',(0.,0.,1.));
#1394=DIRECTION('',(1.,0.,0.));
#1395=DIRECTION('',(1.,2.77555756156289E-16,0.));
#1396=DIRECTION('',(-2.77555756156289E-16,1.,0.));
#1397=DIRECTION('',(2.77555756156289E-16,-1.,0.));
#1398=DIRECTION('',(0.,0.,1.));
#1399=DIRECTION('',(2.77555756156289E-16,-1.,0.));
#1400=DIRECTION('',(0.,0.,-1.));
#1401=DIRECTION('',(0.,1.,0.));
#1402=DIRECTION('',(0.,0.,1.));
#1403=DIRECTION('',(1.,0.,0.));
#1404=DIRECTION('',(0.,0.,-1.));
#1405=DIRECTION('',(1.,0.,0.));
#1406=DIRECTION('',(0.,0.,1.));
#1407=DIRECTION('',(-1.,0.,0.));
#1408=DIRECTION('',(0.,0.,1.));
#1409=DIRECTION('',(0.,1.,0.));
#1410=DIRECTION('',(0.,0.,-1.));
#1411=DIRECTION('',(0.,1.,0.));
#1412=DIRECTION('',(0.,0.,1.));
#1413=DIRECTION('',(0.,-1.,0.));
#1414=DIRECTION('',(0.,0.,-1.));
#1415=DIRECTION('',(-1.,0.,0.));
#1416=DIRECTION('',(0.,0.,1.));
#1417=DIRECTION('',(-1.,0.,0.));
#1418=DIRECTION('',(0.,0.,-1.));
#1419=DIRECTION('',(0.,0.,1.));
#1420=DIRECTION('',(1.,0.,0.));
#1421=DIRECTION('',(0.,0.,1.));
#1422=DIRECTION('',(1.,0.,0.));
#1423=DIRECTION('',(0.,0.,1.));
#1424=DIRECTION('',(1.,0.,0.));
#1425=DIRECTION('',(0.,0.,1.));
#1426=DIRECTION('',(1.,0.,0.));
#1427=DIRECTION('',(0.,0.,1.));
#1428=DIRECTION('',(1.,0.,0.));
#1429=DIRECTION('',(0.,0.,1.));
#1430=DIRECTION('',(1.,0.,0.));
#1431=DIRECTION('',(0.,0.,1.));
#1432=DIRECTION('',(1.,0.,0.));
#1433=DIRECTION('',(0.,0.,1.));
#1434=DIRECTION('',(1.,0.,0.));
#1435=DIRECTION('',(0.,0.,1.));
#1436=DIRECTION('',(1.,0.,0.));
#1437=DIRECTION('',(-0.707106781186547,0.707106781186548,0.));
#1438=DIRECTION('',(-0.707106781186547,-0.707106781186549,0.));
#1439=DIRECTION('',(0.707106781186547,-0.707106781186548,0.));
#1440=DIRECTION('',(0.707106781186547,0.707106781186549,0.));
#1441=DIRECTION('',(0.,0.,1.));
#1442=DIRECTION('',(1.,0.,0.));
#1443=DIRECTION('',(0.,0.,1.));
#1444=DIRECTION('',(1.,0.,0.));
#1445=DIRECTION('',(0.,0.,1.));
#1446=DIRECTION('',(1.,0.,0.));
#1447=DIRECTION('',(0.,0.,1.));
#1448=DIRECTION('',(1.,0.,0.));
#1449=DIRECTION('',(0.,0.,1.));
#1450=DIRECTION('',(1.,0.,0.));
#1451=DIRECTION('',(0.,0.,1.));
#1452=DIRECTION('',(1.,0.,0.));
#1453=DIRECTION('',(0.,0.,1.));
#1454=DIRECTION('',(1.,0.,0.));
#1455=DIRECTION('',(0.,0.,1.));
#1456=DIRECTION('',(1.,0.,0.));
#1457=DIRECTION('',(0.,0.,1.));
#1458=DIRECTION('',(1.,0.,0.));
#1459=DIRECTION('',(0.707106781186547,-0.707106781186548,0.));
#1460=DIRECTION('',(-0.707106781186547,-0.707106781186549,0.));
#1461=DIRECTION('',(-0.707106781186547,0.707106781186548,0.));
#1462=DIRECTION('',(0.707106781186547,0.707106781186549,0.));
#1463=DIRECTION('',(0.707106781186548,0.707106781186547,0.));
#1464=DIRECTION('',(0.,0.,-1.));
#1465=DIRECTION('',(-0.707106781186548,0.707106781186546,0.));
#1466=DIRECTION('',(0.,0.,-1.));
#1467=DIRECTION('',(0.707106781186548,-0.707106781186546,0.));
#1468=DIRECTION('',(0.,0.,-1.));
#1469=DIRECTION('',(-0.707106781186548,-0.707106781186547,0.));
#1470=DIRECTION('',(0.,0.,-1.));
#1471=DIRECTION('',(0.,0.,1.));
#1472=DIRECTION('',(1.,0.,0.));
#1473=DIRECTION('',(0.,0.,1.));
#1474=DIRECTION('',(1.,0.,0.));
#1475=DIRECTION('',(0.,0.,1.));
#1476=DIRECTION('',(1.,0.,0.));
#1477=DIRECTION('',(0.,0.,1.));
#1478=DIRECTION('',(1.,0.,0.));
#1479=DIRECTION('',(0.,0.,1.));
#1480=DIRECTION('',(1.,0.,0.));
#1481=DIRECTION('',(0.,0.,1.));
#1482=DIRECTION('',(1.,0.,0.));
#1483=DIRECTION('',(0.,0.,1.));
#1484=DIRECTION('',(1.,0.,0.));
#1485=DIRECTION('',(0.,0.,1.));
#1486=DIRECTION('',(1.,0.,0.));
#1487=DIRECTION('',(0.,0.,1.));
#1488=DIRECTION('',(1.,0.,0.));
#1489=DIRECTION('',(0.,0.,1.));
#1490=DIRECTION('',(-1.60812264967664E-16,1.,0.));
#1491=DIRECTION('',(0.,0.,1.));
#1492=DIRECTION('',(-1.,-1.60812264967664E-16,0.));
#1493=DIRECTION('',(0.,0.,-1.));
#1494=DIRECTION('',(1.60812264967664E-16,-1.,0.));
#1495=DIRECTION('',(0.,0.,1.));
#1496=DIRECTION('',(-1.,1.22464679914735E-16,0.));
#1497=DIRECTION('',(0.,0.,1.));
#1498=DIRECTION('',(-1.22464679914735E-16,-1.,0.));
#1499=DIRECTION('',(0.,0.,-1.));
#1500=DIRECTION('',(1.,-1.22464679914735E-16,0.));
#1501=DIRECTION('',(0.,0.,1.));
#1502=DIRECTION('',(-1.83697019872103E-16,-1.,0.));
#1503=DIRECTION('',(0.,0.,1.));
#1504=DIRECTION('',(1.,-1.83697019872103E-16,0.));
#1505=DIRECTION('',(0.,0.,-1.));
#1506=DIRECTION('',(1.83697019872103E-16,1.,0.));
#1507=DIRECTION('',(0.,0.,1.));
#1508=DIRECTION('',(1.,0.,0.));
#1509=DIRECTION('',(0.,0.,-1.));
#1510=DIRECTION('',(1.,0.,0.));
#1511=DIRECTION('',(0.,0.,-1.));
#1512=DIRECTION('',(1.,0.,0.));
#1513=DIRECTION('',(0.,0.,-1.));
#1514=DIRECTION('',(-1.,0.,0.));
#1515=DIRECTION('',(0.,0.,-1.));
#1516=DIRECTION('',(-1.,0.,0.));
#1517=DIRECTION('',(0.,0.,-1.));
#1518=DIRECTION('',(-1.,0.,0.));
#1519=DIRECTION('',(0.,0.,1.));
#1520=DIRECTION('',(0.,1.,0.));
#1521=DIRECTION('',(0.,0.,1.));
#1522=DIRECTION('',(1.,0.,0.));
#1523=DIRECTION('',(-9.02056207507937E-17,8.88178419700125E-16,1.));
#1524=DIRECTION('',(1.,-5.55111512312578E-16,9.02056207507942E-17));
#1525=DIRECTION('',(-3.46944695195361E-17,1.45215117806798E-31,1.));
#1526=DIRECTION('',(1.,-1.11022302462516E-16,3.46944695195361E-17));
#1527=DIRECTION('',(0.,0.,-1.));
#1528=DIRECTION('',(-1.,0.,0.));
#1529=DIRECTION('',(0.,0.,1.));
#1530=DIRECTION('',(1.,0.,0.));
#1531=DIRECTION('',(0.,0.,1.));
#1532=DIRECTION('',(1.,0.,0.));
#1533=DIRECTION('',(1.,0.,0.));
#1534=DIRECTION('',(0.,0.,-1.));
#1535=DIRECTION('',(0.,1.,-1.11022302462516E-16));
#1536=DIRECTION('',(1.,0.,0.));
#1537=DIRECTION('',(0.,-1.,1.11022302462516E-16));
#1538=DIRECTION('',(0.,-1.11022302462516E-16,-1.));
#1539=DIRECTION('',(0.,1.,0.));
#1540=DIRECTION('',(1.,0.,0.));
#1541=DIRECTION('',(1.,0.,0.));
#1542=DIRECTION('',(0.,0.,-1.));
#1543=DIRECTION('',(0.,0.,-1.));
#1544=DIRECTION('',(1.,0.,0.));
#1545=DIRECTION('',(0.,0.,1.));
#1546=DIRECTION('',(1.,0.,0.));
#1547=DIRECTION('',(0.,0.,-1.));
#1548=DIRECTION('',(1.,0.,0.));
#1549=DIRECTION('',(0.,0.,1.));
#1550=DIRECTION('',(1.,0.,0.));
#1551=DIRECTION('',(0.,0.,-1.));
#1552=DIRECTION('',(1.,0.,0.));
#1553=DIRECTION('',(3.07150711791462E-16,-7.01648950890412E-16,1.));
#1554=DIRECTION('',(1.,-1.11022302462515E-16,-3.07150711791462E-16));
#1555=DIRECTION('',(0.,0.,-1.));
#1556=DIRECTION('',(-1.,0.,0.));
#1557=DIRECTION('',(0.,0.,-1.));
#1558=DIRECTION('',(-1.,0.,0.));
#1559=DIRECTION('',(0.,0.,-1.));
#1560=DIRECTION('',(-1.,0.,0.));
#1561=DIRECTION('',(0.,0.,-1.));
#1562=DIRECTION('',(-1.,0.,0.));
#1563=DIRECTION('',(0.,0.,-1.));
#1564=DIRECTION('',(-1.,0.,0.));
#1565=DIRECTION('',(0.,0.,-1.));
#1566=DIRECTION('',(-1.,0.,0.));
#1567=DIRECTION('',(0.,0.,1.));
#1568=DIRECTION('',(1.,0.,0.));
#1569=DIRECTION('',(0.,0.,-1.));
#1570=DIRECTION('',(-1.,0.,0.));
#1571=DIRECTION('',(0.,0.,-1.));
#1572=DIRECTION('',(-1.,0.,0.));
#1573=DIRECTION('',(0.,0.,-1.));
#1574=DIRECTION('',(-1.,0.,0.));
#1575=DIRECTION('',(0.,0.,-1.));
#1576=DIRECTION('',(-1.,0.,0.));
#1577=DIRECTION('',(0.,0.,-1.));
#1578=DIRECTION('',(-1.,0.,0.));
#1579=DIRECTION('',(0.,0.,1.));
#1580=DIRECTION('',(1.,0.,0.));
#1581=DIRECTION('',(0.,0.,-1.));
#1582=DIRECTION('',(-1.,0.,0.));
#1583=DIRECTION('',(0.,0.,-1.));
#1584=DIRECTION('',(-1.,0.,0.));
#1585=DIRECTION('',(0.,0.,-1.));
#1586=DIRECTION('',(-1.,0.,0.));
#1587=DIRECTION('',(0.,0.,-1.));
#1588=DIRECTION('',(-1.,0.,0.));
#1589=DIRECTION('',(0.,0.,-1.));
#1590=DIRECTION('',(-1.,0.,0.));
#1591=DIRECTION('',(0.,0.,-1.));
#1592=DIRECTION('',(1.,0.,0.));
#1593=DIRECTION('',(0.,0.,-1.));
#1594=DIRECTION('',(-1.,0.,0.));
#1595=DIRECTION('',(0.,0.,-1.));
#1596=DIRECTION('',(-1.,0.,0.));
#1597=DIRECTION('',(0.,0.,-1.));
#1598=DIRECTION('',(-1.,0.,0.));
#1599=DIRECTION('',(0.,0.,-1.));
#1600=DIRECTION('',(-1.,0.,0.));
#1601=DIRECTION('',(0.,0.,-1.));
#1602=DIRECTION('',(-1.,0.,0.));
#1603=DIRECTION('',(0.,0.,-1.));
#1604=DIRECTION('',(-1.,0.,0.));
#1605=DIRECTION('',(0.,0.,1.));
#1606=DIRECTION('',(1.,0.,0.));
#1607=DIRECTION('',(0.,0.,-1.));
#1608=DIRECTION('',(-1.,0.,0.));
#1609=DIRECTION('',(6.24641912490265E-17,-7.1028219233553E-16,1.));
#1610=DIRECTION('',(1.,3.88578058618804E-16,-6.24641912490262E-17));
#1611=DIRECTION('',(2.66911679357386E-17,1.4729261096544E-16,1.));
#1612=DIRECTION('',(1.,1.66533453693773E-16,-2.66911679357386E-17));
#1613=DIRECTION('',(0.,0.,-1.));
#1614=DIRECTION('',(-1.,0.,0.));
#1615=DIRECTION('',(0.,0.,-1.));
#1616=DIRECTION('',(-1.,0.,0.));
#1617=DIRECTION('',(0.,0.,-1.));
#1618=DIRECTION('',(-1.,0.,0.));
#1619=DIRECTION('',(0.,0.,-1.));
#1620=DIRECTION('',(-1.,0.,0.));
#1621=DIRECTION('',(0.,0.,-1.));
#1622=DIRECTION('',(-1.,0.,0.));
#1623=DIRECTION('',(0.,0.,-1.));
#1624=DIRECTION('',(-1.,0.,0.));
#1625=DIRECTION('',(0.,0.,-1.));
#1626=DIRECTION('',(-1.,0.,0.));
#1627=DIRECTION('',(0.,0.,-1.));
#1628=DIRECTION('',(-1.,0.,0.));
#1629=DIRECTION('',(0.,0.,1.));
#1630=DIRECTION('',(1.,0.,0.));
#1631=DIRECTION('',(0.,0.,-1.));
#1632=DIRECTION('',(-1.,0.,0.));
#1633=DIRECTION('',(0.,0.,1.));
#1634=DIRECTION('',(1.,0.,0.));
#1635=DIRECTION('',(-1.,1.69010392357927E-14,0.));
#1636=DIRECTION('',(-0.500000000000005,0.866025403784436,0.));
#1637=DIRECTION('',(0.500000000000026,0.866025403784424,0.));
#1638=DIRECTION('',(1.,4.15014407901136E-14,0.));
#1639=DIRECTION('',(0.499999999999959,-0.866025403784462,0.));
#1640=DIRECTION('',(-0.499999999999972,-0.866025403784455,0.));
#1641=DIRECTION('',(0.,0.,1.));
#1642=DIRECTION('',(1.,0.,0.));
#1643=DIRECTION('',(0.,0.,1.));
#1644=DIRECTION('',(1.,0.,0.));
#1645=DIRECTION('',(0.,0.,-1.));
#1646=DIRECTION('',(-1.,0.,0.));
#1647=DIRECTION('',(0.,0.,1.));
#1648=DIRECTION('',(1.,0.,0.));
#1649=DIRECTION('',(1.69010392357927E-14,1.,0.));
#1650=DIRECTION('',(-1.,1.69010392357927E-14,0.));
#1651=DIRECTION('',(0.,0.,1.));
#1652=DIRECTION('',(-1.,1.69010392357927E-14,0.));
#1653=DIRECTION('',(0.,0.,1.));
#1654=DIRECTION('',(-0.866025403784455,0.499999999999972,0.));
#1655=DIRECTION('',(-0.499999999999972,-0.866025403784455,0.));
#1656=DIRECTION('',(0.,0.,1.));
#1657=DIRECTION('',(-0.499999999999972,-0.866025403784455,0.));
#1658=DIRECTION('',(-0.866025403784462,-0.499999999999959,0.));
#1659=DIRECTION('',(0.499999999999959,-0.866025403784462,0.));
#1660=DIRECTION('',(0.,0.,1.));
#1661=DIRECTION('',(0.499999999999959,-0.866025403784462,0.));
#1662=DIRECTION('',(4.15014407901136E-14,-1.,0.));
#1663=DIRECTION('',(1.,4.15014407901136E-14,0.));
#1664=DIRECTION('',(0.,0.,1.));
#1665=DIRECTION('',(1.,4.15014407901136E-14,0.));
#1666=DIRECTION('',(0.866025403784424,-0.500000000000026,0.));
#1667=DIRECTION('',(0.500000000000026,0.866025403784424,0.));
#1668=DIRECTION('',(0.,0.,1.));
#1669=DIRECTION('',(0.500000000000026,0.866025403784424,0.));
#1670=DIRECTION('',(0.866025403784436,0.500000000000005,0.));
#1671=DIRECTION('',(-0.500000000000005,0.866025403784436,0.));
#1672=DIRECTION('',(-0.500000000000005,0.866025403784436,0.));
#1673=DIRECTION('',(0.,0.,1.));
#1674=DIRECTION('',(1.,0.,0.));
#1675=DIRECTION('',(-7.11236625150491E-17,1.97758476261356E-16,1.));
#1676=DIRECTION('',(-1.,0.,-7.11236625150491E-17));
#1677=DIRECTION('',(-5.20417042792997E-18,-6.22765727875673E-16,1.));
#1678=DIRECTION('',(-1.,-7.21644966006352E-16,-5.20417042793042E-18));
#1679=DIRECTION('',(1.75207071073658E-16,9.14199271839777E-16,1.));
#1680=DIRECTION('',(-5.37947946134249E-16,1.,-9.14199271839777E-16));
#1681=DIRECTION('',(8.76906066138011E-17,8.46530910162821E-16,1.));
#1682=DIRECTION('',(2.04881038746701E-16,-1.,8.46530910162821E-16));
#1683=DIRECTION('',(-6.41847686111422E-17,6.22765727875674E-16,1.));
#1684=DIRECTION('',(1.,-2.88998133608509E-16,6.41847686111424E-17));
#1685=DIRECTION('',(-1.31853130288099E-16,7.10282192335531E-16,1.));
#1686=DIRECTION('',(-1.,6.22065040996056E-16,-1.31853130288099E-16));
#1687=DIRECTION('',(-3.55618312575245E-16,8.62157567560474E-16,1.));
#1688=DIRECTION('',(8.82457230974015E-16,-1.,8.62157567560474E-16));
#1689=DIRECTION('',(-2.68101848115389E-16,9.2982592923743E-16,1.));
#1690=DIRECTION('',(-5.49390323586468E-16,1.,-9.2982592923743E-16));
#1691=DIRECTION('',(1.12598141445904E-16,-6.13856374552746E-17,1.));
#1692=DIRECTION('',(-1.71635661783295E-17,-1.,-6.13856374552746E-17));
#1693=DIRECTION('',(1.6306400674182E-16,3.64291929955131E-17,1.));
#1694=DIRECTION('',(1.83697019872103E-16,1.,-3.64291929955131E-17));
#1695=DIRECTION('',(-9.60801069748109E-17,-1.4729261096544E-16,1.));
#1696=DIRECTION('',(-1.,-4.40687737790382E-17,-9.60801069748109E-17));
#1697=DIRECTION('',(1.73472347597679E-18,-1.97758476261356E-16,1.));
#1698=DIRECTION('',(1.,-1.22464679914735E-16,-1.73472347597682E-18));
#1699=DIRECTION('',(-1.81987080484976E-16,6.13856374552749E-17,1.));
#1700=DIRECTION('',(-3.27345718661437E-16,1.,-6.13856374552749E-17));
#1701=DIRECTION('',(-2.32452945780892E-16,-3.64291929955128E-17,1.));
#1702=DIRECTION('',(1.60812264967664E-16,-1.,-3.64291929955128E-17));
#1703=CARTESIAN_POINT('',(0.,0.,0.));
#1704=CARTESIAN_POINT('',(-45.,200.,6.));
#1705=CARTESIAN_POINT('',(-45.,200.,0.));
#1706=CARTESIAN_POINT('',(-45.,195.,0.));
#1707=CARTESIAN_POINT('',(-44.9999999999999,-195.,0.));
#1708=CARTESIAN_POINT('',(-44.9999999999999,-195.,6.));
#1709=CARTESIAN_POINT('',(-44.9999999999999,-195.,6.));
#1710=CARTESIAN_POINT('',(-45.,200.,6.));
#1711=CARTESIAN_POINT('',(-45.,195.,6.));
#1712=CARTESIAN_POINT('',(-45.,195.,6.));
#1713=CARTESIAN_POINT('',(-44.9999999999999,-200.,6.));
#1714=CARTESIAN_POINT('',(-44.9999999999999,-200.,6.));
#1715=CARTESIAN_POINT('',(-39.9999999999999,-200.,6.));
#1716=CARTESIAN_POINT('',(40.,-200.,6.));
#1717=CARTESIAN_POINT('',(-39.9999999999999,-200.,6.));
#1718=CARTESIAN_POINT('',(-39.9999999999999,-200.,0.));
#1719=CARTESIAN_POINT('',(-44.9999999999999,-200.,0.));
#1720=CARTESIAN_POINT('',(40.,-200.,0.));
#1721=CARTESIAN_POINT('',(40.,-200.,6.));
#1722=CARTESIAN_POINT('',(45.,-200.,6.));
#1723=CARTESIAN_POINT('',(45.,-200.,6.));
#1724=CARTESIAN_POINT('',(45.,-195.,6.));
#1725=CARTESIAN_POINT('',(45.,195.,6.));
#1726=CARTESIAN_POINT('',(45.,-195.,6.));
#1727=CARTESIAN_POINT('',(45.,-195.,0.));
#1728=CARTESIAN_POINT('',(45.,-200.,0.));
#1729=CARTESIAN_POINT('',(45.,195.,0.));
#1730=CARTESIAN_POINT('',(45.,195.,6.));
#1731=CARTESIAN_POINT('',(45.,200.,6.));
#1732=CARTESIAN_POINT('',(45.,200.,0.));
#1733=CARTESIAN_POINT('',(40.,200.,0.));
#1734=CARTESIAN_POINT('',(-40.0000000000001,200.,0.));
#1735=CARTESIAN_POINT('',(-40.0000000000001,200.,6.));
#1736=CARTESIAN_POINT('',(-40.0000000000001,200.,6.));
#1737=CARTESIAN_POINT('',(45.,200.,6.));
#1738=CARTESIAN_POINT('',(40.,200.,6.));
#1739=CARTESIAN_POINT('',(40.,200.,6.));
#1740=CARTESIAN_POINT('',(0.,0.,6.));
#1741=CARTESIAN_POINT('',(3.71150212244157E-14,175.,6.));
#1742=CARTESIAN_POINT('',(2.06700000000004,175.,6.));
#1743=CARTESIAN_POINT('',(-25.,150.,6.));
#1744=CARTESIAN_POINT('',(-22.933,150.,6.));
#1745=CARTESIAN_POINT('',(5.31962477211821E-14,125.,6.));
#1746=CARTESIAN_POINT('',(2.06700000000005,125.,6.));
#1747=CARTESIAN_POINT('',(25.,150.,6.));
#1748=CARTESIAN_POINT('',(27.067,150.,6.));
#1749=CARTESIAN_POINT('',(-1.55820686543463E-14,-175.,6.));
#1750=CARTESIAN_POINT('',(2.06699999999998,-175.,6.));
#1751=CARTESIAN_POINT('',(-25.,-150.,6.));
#1752=CARTESIAN_POINT('',(-22.933,-150.,6.));
#1753=CARTESIAN_POINT('',(-9.45883465860956E-15,-125.,6.));
#1754=CARTESIAN_POINT('',(2.06699999999999,-125.,6.));
#1755=CARTESIAN_POINT('',(25.,-150.,6.));
#1756=CARTESIAN_POINT('',(27.067,-150.,6.));
#1757=CARTESIAN_POINT('',(-120.,-120.,6.));
#1758=CARTESIAN_POINT('',(120.,-120.,6.));
#1759=CARTESIAN_POINT('',(120.,120.,6.));
#1760=CARTESIAN_POINT('',(-120.,120.,6.));
#1761=CARTESIAN_POINT('',(0.,0.,0.));
#1762=CARTESIAN_POINT('',(3.71150212244157E-14,175.,0.));
#1763=CARTESIAN_POINT('',(2.06700000000004,175.,0.));
#1764=CARTESIAN_POINT('',(-25.,150.,0.));
#1765=CARTESIAN_POINT('',(-22.933,150.,0.));
#1766=CARTESIAN_POINT('',(5.31962477211821E-14,125.,0.));
#1767=CARTESIAN_POINT('',(2.06700000000005,125.,0.));
#1768=CARTESIAN_POINT('',(25.,150.,0.));
#1769=CARTESIAN_POINT('',(27.067,150.,0.));
#1770=CARTESIAN_POINT('',(-1.55820686543463E-14,-175.,0.));
#1771=CARTESIAN_POINT('',(2.06699999999998,-175.,0.));
#1772=CARTESIAN_POINT('',(-25.,-150.,0.));
#1773=CARTESIAN_POINT('',(-22.933,-150.,0.));
#1774=CARTESIAN_POINT('',(-9.45883465860956E-15,-125.,0.));
#1775=CARTESIAN_POINT('',(2.06699999999999,-125.,0.));
#1776=CARTESIAN_POINT('',(25.,-150.,0.));
#1777=CARTESIAN_POINT('',(27.067,-150.,0.));
#1778=CARTESIAN_POINT('',(-39.9999999999999,-200.,0.));
#1779=CARTESIAN_POINT('',(-45.,195.,0.));
#1780=CARTESIAN_POINT('',(40.,200.,0.));
#1781=CARTESIAN_POINT('',(45.,-195.,0.));
#1782=CARTESIAN_POINT('',(-39.9999999999999,-200.,6.));
#1783=CARTESIAN_POINT('',(45.,-195.,6.));
#1784=CARTESIAN_POINT('',(-45.,195.,6.));
#1785=CARTESIAN_POINT('',(40.,200.,6.));
#1786=CARTESIAN_POINT('',(25.,-150.,-404.043900088759));
#1787=CARTESIAN_POINT('',(-9.45883465860956E-15,-125.,-404.043900088759));
#1788=CARTESIAN_POINT('',(-25.,-150.,-404.043900088759));
#1789=CARTESIAN_POINT('',(-1.55820686543463E-14,-175.,-404.043900088759));
#1790=CARTESIAN_POINT('',(25.,150.,-404.043900088759));
#1791=CARTESIAN_POINT('',(5.31962477211821E-14,125.,-404.043900088759));
#1792=CARTESIAN_POINT('',(-25.,150.,-404.043900088759));
#1793=CARTESIAN_POINT('',(3.71150212244157E-14,175.,-404.043900088759));
#1794=CARTESIAN_POINT('',(0.,0.,0.));
#1795=CARTESIAN_POINT('',(4.02030662419159E-15,-25.,-99.1211380079951));
#1796=CARTESIAN_POINT('',(4.02030662419159E-15,-25.,0.));
#1797=CARTESIAN_POINT('',(-3.,-25.,0.));
#1798=CARTESIAN_POINT('',(4.02030662419159E-15,-25.,-5.));
#1799=CARTESIAN_POINT('',(4.50274341909458E-15,-28.,-5.));
#1800=CARTESIAN_POINT('',(25.,-3.06161699786838E-15,-99.1211380079951));
#1801=CARTESIAN_POINT('',(25.,-3.06161699786838E-15,0.));
#1802=CARTESIAN_POINT('',(25.,-3.,0.));
#1803=CARTESIAN_POINT('',(25.,-3.06161699786838E-15,-5.));
#1804=CARTESIAN_POINT('',(28.,-3.42901103761259E-15,-5.));
#1805=CARTESIAN_POINT('',(4.59242549680257E-15,25.,-99.1211380079951));
#1806=CARTESIAN_POINT('',(4.59242549680257E-15,25.,0.));
#1807=CARTESIAN_POINT('',(3.,25.,0.));
#1808=CARTESIAN_POINT('',(4.59242549680257E-15,25.,-5.));
#1809=CARTESIAN_POINT('',(5.14351655641888E-15,28.,-5.));
#1810=CARTESIAN_POINT('',(0.,0.,-5.));
#1811=CARTESIAN_POINT('',(0.,0.,-5.));
#1812=CARTESIAN_POINT('',(35.,0.,-5.));
#1813=CARTESIAN_POINT('',(0.,0.,0.));
#1814=CARTESIAN_POINT('',(35.,0.,0.));
#1815=CARTESIAN_POINT('',(0.,0.,-5.));
#1816=CARTESIAN_POINT('',(-25.,0.,-5.));
#1817=CARTESIAN_POINT('',(-28.,0.,-5.));
#1818=CARTESIAN_POINT('',(0.,0.,0.));
#1819=CARTESIAN_POINT('',(-25.,0.,0.));
#1820=CARTESIAN_POINT('',(-25.,3.,0.));
#1821=CARTESIAN_POINT('',(-25.,0.,-99.1211380079951));
#1822=CARTESIAN_POINT('',(4.08492684123018E-14,150.,11.0000000000001));
#1823=CARTESIAN_POINT('',(-1.6826817716975E-14,-150.,11.));
#1824=CARTESIAN_POINT('',(0.,-150.,27.5));
#1825=CARTESIAN_POINT('',(0.,-150.,-27.5));
#1826=CARTESIAN_POINT('',(12.,-150.,-27.5));
#1827=CARTESIAN_POINT('',(0.,-150.,27.5));
#1828=CARTESIAN_POINT('',(12.,-150.,27.5));
#1829=CARTESIAN_POINT('',(0.,-125.,27.5));
#1830=CARTESIAN_POINT('',(0.,-125.,52.5));
#1831=CARTESIAN_POINT('',(12.,-125.,52.5));
#1832=CARTESIAN_POINT('',(0.,125.,52.5));
#1833=CARTESIAN_POINT('',(0.,125.,52.5));
#1834=CARTESIAN_POINT('',(12.,125.,52.5));
#1835=CARTESIAN_POINT('',(0.,125.,27.5));
#1836=CARTESIAN_POINT('',(0.,150.,27.5));
#1837=CARTESIAN_POINT('',(12.,150.,27.5));
#1838=CARTESIAN_POINT('',(0.,150.,-27.5));
#1839=CARTESIAN_POINT('',(0.,150.,-27.5));
#1840=CARTESIAN_POINT('',(12.,150.,-27.5));
#1841=CARTESIAN_POINT('',(0.,-150.,-27.5));
#1842=CARTESIAN_POINT('',(0.,150.,-27.5));
#1843=CARTESIAN_POINT('',(-3.49347416380923E-14,-5.908901840046E-14,38.5000000000001));
#1844=CARTESIAN_POINT('',(-3.49347416380923E-14,-150.,66.0000000000001));
#1845=CARTESIAN_POINT('',(-3.49347416380923E-14,-150.,14.));
#1846=CARTESIAN_POINT('',(-12.,-150.,14.));
#1847=CARTESIAN_POINT('',(-3.49347416380923E-14,-150.,11.));
#1848=CARTESIAN_POINT('',(-12.,-150.,11.));
#1849=CARTESIAN_POINT('',(-1.6826817716975E-14,-150.,11.));
#1850=CARTESIAN_POINT('',(-3.49347416380923E-14,-150.,11.));
#1851=CARTESIAN_POINT('',(-15.,-150.,11.));
#1852=CARTESIAN_POINT('',(-3.49347416380923E-14,-150.,11.));
#1853=CARTESIAN_POINT('',(-3.49347416380923E-14,150.,11.0000000000001));
#1854=CARTESIAN_POINT('',(-3.49347416380923E-14,150.,14.0000000000001));
#1855=CARTESIAN_POINT('',(-12.,150.,14.0000000000001));
#1856=CARTESIAN_POINT('',(-3.49347416380923E-14,150.,11.0000000000001));
#1857=CARTESIAN_POINT('',(-12.,150.,11.0000000000001));
#1858=CARTESIAN_POINT('',(4.08492684123018E-14,150.,11.0000000000001));
#1859=CARTESIAN_POINT('',(-3.49347416380923E-14,150.,11.0000000000001));
#1860=CARTESIAN_POINT('',(-15.,150.,11.0000000000001));
#1861=CARTESIAN_POINT('',(-3.49347416380923E-14,150.,11.0000000000001));
#1862=CARTESIAN_POINT('',(0.,0.,0.));
#1863=CARTESIAN_POINT('',(0.,0.,0.5));
#1864=CARTESIAN_POINT('',(0.,0.,-0.25));
#1865=CARTESIAN_POINT('',(-2.65,0.,-0.25));
#1866=CARTESIAN_POINT('',(0.,0.,0.25));
#1867=CARTESIAN_POINT('',(-2.65,0.,0.25));
#1868=CARTESIAN_POINT('',(0.,0.,0.5));
#1869=CARTESIAN_POINT('',(0.,0.,0.25));
#1870=CARTESIAN_POINT('',(-5.,0.,0.25));
#1871=CARTESIAN_POINT('',(0.,0.,-0.5));
#1872=CARTESIAN_POINT('',(5.,0.,-0.5));
#1873=CARTESIAN_POINT('',(0.,0.,0.5));
#1874=CARTESIAN_POINT('',(0.,0.,0.5));
#1875=CARTESIAN_POINT('',(-2.9,0.,0.5));
#1876=CARTESIAN_POINT('',(0.,0.,0.5));
#1877=CARTESIAN_POINT('',(-4.75,0.,0.5));
#1878=CARTESIAN_POINT('',(0.,0.,-0.5));
#1879=CARTESIAN_POINT('',(0.,0.,-0.5));
#1880=CARTESIAN_POINT('',(-2.9,0.,-0.5));
#1881=CARTESIAN_POINT('',(0.,0.,-0.25));
#1882=CARTESIAN_POINT('',(0.,0.,0.5));
#1883=CARTESIAN_POINT('',(0.,0.,0.25));
#1884=CARTESIAN_POINT('',(3.71867273726532E-14,175.,11.5000000000002));
#1885=CARTESIAN_POINT('',(-9.41615581591705E-15,-125.,11.5));
#1886=CARTESIAN_POINT('',(2.14313189850787E-15,0.,-7.5));
#1887=CARTESIAN_POINT('',(5.33160338325121E-15,0.,-7.5));
#1888=CARTESIAN_POINT('',(-2.4,0.,-7.5));
#1889=CARTESIAN_POINT('',(5.33160338325121E-15,0.,5.50000000000001));
#1890=CARTESIAN_POINT('',(5.33160338325121E-15,0.,-7.4));
#1891=CARTESIAN_POINT('',(-2.5,0.,-7.4));
#1892=CARTESIAN_POINT('',(5.33160338325121E-15,0.,2.5));
#1893=CARTESIAN_POINT('',(-2.5,0.,2.5));
#1894=CARTESIAN_POINT('',(-2.5,0.,2.5));
#1895=CARTESIAN_POINT('',(5.33160338325121E-15,0.,2.5));
#1896=CARTESIAN_POINT('',(-4.15,0.,2.5));
#1897=CARTESIAN_POINT('',(5.33160338325121E-15,0.,5.50000000000001));
#1898=CARTESIAN_POINT('',(5.33160338325121E-15,0.,7.4));
#1899=CARTESIAN_POINT('',(4.25000000000001,0.,7.4));
#1900=CARTESIAN_POINT('',(5.33160338325121E-15,0.,2.6));
#1901=CARTESIAN_POINT('',(-4.25,0.,2.6));
#1902=CARTESIAN_POINT('',(-4.25,0.,7.5));
#1903=CARTESIAN_POINT('',(1.15470053837927,2.00000000000001,7.5));
#1904=CARTESIAN_POINT('',(1.15470053837927,2.00000000000001,7.5));
#1905=CARTESIAN_POINT('',(-1.15470053837927,2.00000000000005,7.5));
#1906=CARTESIAN_POINT('',(2.30940107675855,7.24806310399345E-17,7.5));
#1907=CARTESIAN_POINT('',(2.30940107675855,4.33680868994202E-16,7.5));
#1908=CARTESIAN_POINT('',(1.15470053837922,-1.99999999999999,7.5));
#1909=CARTESIAN_POINT('',(1.15470053837922,-1.99999999999999,7.5));
#1910=CARTESIAN_POINT('',(-1.1547005383793,-2.00000000000008,7.5));
#1911=CARTESIAN_POINT('',(-1.1547005383793,-2.00000000000008,7.5));
#1912=CARTESIAN_POINT('',(-2.30940107675847,-5.68091144165497E-15,7.5));
#1913=CARTESIAN_POINT('',(-2.30940107675847,-6.07153216591882E-15,7.5));
#1914=CARTESIAN_POINT('',(-1.15470053837927,2.00000000000005,7.5));
#1915=CARTESIAN_POINT('',(5.33160338325121E-15,0.,7.5));
#1916=CARTESIAN_POINT('',(4.15000000000001,0.,7.5));
#1917=CARTESIAN_POINT('',(5.33160338325121E-15,0.,-7.5));
#1918=CARTESIAN_POINT('',(5.33160338325121E-15,0.,7.4));
#1919=CARTESIAN_POINT('',(5.33160338325121E-15,0.,2.5));
#1920=CARTESIAN_POINT('',(1.15470053837927,2.00000000000001,5.));
#1921=CARTESIAN_POINT('',(-1.15470053837927,2.00000000000005,5.));
#1922=CARTESIAN_POINT('',(-1.15470053837927,2.00000000000005,5.));
#1923=CARTESIAN_POINT('',(1.15470053837927,2.00000000000001,5.));
#1924=CARTESIAN_POINT('',(1.15470053837927,2.00000000000001,5.));
#1925=CARTESIAN_POINT('',(1.15470053837927,2.00000000000001,5.));
#1926=CARTESIAN_POINT('',(-1.15470053837927,2.00000000000005,5.));
#1927=CARTESIAN_POINT('',(-2.30940107675847,-6.07153216591882E-15,5.));
#1928=CARTESIAN_POINT('',(-2.30940107675847,-6.07153216591882E-15,5.));
#1929=CARTESIAN_POINT('',(-1.15470053837927,2.00000000000005,5.));
#1930=CARTESIAN_POINT('',(-2.30940107675847,-5.68091144165497E-15,5.));
#1931=CARTESIAN_POINT('',(-1.1547005383793,-2.00000000000008,5.));
#1932=CARTESIAN_POINT('',(-1.1547005383793,-2.00000000000008,5.));
#1933=CARTESIAN_POINT('',(-2.30940107675847,-5.68091144165497E-15,5.));
#1934=CARTESIAN_POINT('',(-1.1547005383793,-2.00000000000008,5.));
#1935=CARTESIAN_POINT('',(1.15470053837922,-1.99999999999999,5.));
#1936=CARTESIAN_POINT('',(1.15470053837922,-1.99999999999999,5.));
#1937=CARTESIAN_POINT('',(-1.1547005383793,-2.00000000000008,5.));
#1938=CARTESIAN_POINT('',(1.15470053837922,-1.99999999999999,5.));
#1939=CARTESIAN_POINT('',(2.30940107675855,4.33680868994202E-16,5.));
#1940=CARTESIAN_POINT('',(2.30940107675855,4.33680868994202E-16,5.));
#1941=CARTESIAN_POINT('',(1.15470053837922,-1.99999999999999,5.));
#1942=CARTESIAN_POINT('',(2.30940107675855,7.24806310399345E-17,5.));
#1943=CARTESIAN_POINT('',(2.30940107675855,7.24806310399345E-17,5.));
#1944=CARTESIAN_POINT('',(0.,0.,5.));
#1945=CARTESIAN_POINT('',(-2.88334267300934E-15,-125.,9.5));
#1946=CARTESIAN_POINT('',(3.95478594115898E-14,175.,9.50000000000015));
#1947=CARTESIAN_POINT('',(25.,150.,9.50000000000013));
#1948=CARTESIAN_POINT('',(25.,150.,11.5000000000001));
#1949=CARTESIAN_POINT('',(6.13976043162072E-14,125.,9.50000000000015));
#1950=CARTESIAN_POINT('',(6.36199584770656E-14,125.,11.5000000000002));
#1951=CARTESIAN_POINT('',(-25.,150.,9.50000000000013));
#1952=CARTESIAN_POINT('',(-25.,150.,11.5000000000001));
#1953=CARTESIAN_POINT('',(25.,-150.,11.5));
#1954=CARTESIAN_POINT('',(25.,-150.,9.5));
#1955=CARTESIAN_POINT('',(-2.73337910854209E-14,-175.,11.5));
#1956=CARTESIAN_POINT('',(-3.37278263502505E-14,-175.,9.5));
#1957=CARTESIAN_POINT('',(-25.,-150.,11.5));
#1958=CARTESIAN_POINT('',(-25.,-150.,9.5));
#1959=MECHANICAL_DESIGN_GEOMETRIC_PRESENTATION_REPRESENTATION('',(#916,
#917,#918,#919,#920,#921,#922,#923,#924,#925,#926,#927,#928,#929,#930,#931,
#932,#933,#934,#935,#936,#937,#938,#939,#940,#941,#942,#943,#944,#945,#946,
#947,#948,#949,#950,#951),#1960);
#1960=(
GEOMETRIC_REPRESENTATION_CONTEXT(3)
GLOBAL_UNCERTAINTY_ASSIGNED_CONTEXT((#1967))
GLOBAL_UNIT_ASSIGNED_CONTEXT((#1976,#1975,#1974))
REPRESENTATION_CONTEXT('Handel','TOP_LEVEL_ASSEMBLY_PART')
);
#1961=(
GEOMETRIC_REPRESENTATION_CONTEXT(3)
GLOBAL_UNCERTAINTY_ASSIGNED_CONTEXT((#1968))
GLOBAL_UNIT_ASSIGNED_CONTEXT((#1976,#1975,#1974))
REPRESENTATION_CONTEXT('Bottom Plate','COMPONENT_PART')
);
#1962=(
GEOMETRIC_REPRESENTATION_CONTEXT(3)
GLOBAL_UNCERTAINTY_ASSIGNED_CONTEXT((#1969))
GLOBAL_UNIT_ASSIGNED_CONTEXT((#1976,#1975,#1974))
REPRESENTATION_CONTEXT('Bottom Plate-2','COMPONENT_PART')
);
#1963=(
GEOMETRIC_REPRESENTATION_CONTEXT(3)
GLOBAL_UNCERTAINTY_ASSIGNED_CONTEXT((#1970))
GLOBAL_UNIT_ASSIGNED_CONTEXT((#1976,#1975,#1974))
REPRESENTATION_CONTEXT('Handel','COMPONENT_PART')
);
#1964=(
GEOMETRIC_REPRESENTATION_CONTEXT(3)
GLOBAL_UNCERTAINTY_ASSIGNED_CONTEXT((#1971))
GLOBAL_UNIT_ASSIGNED_CONTEXT((#1976,#1975,#1974))
REPRESENTATION_CONTEXT('Handel_442_445_Fillet 1_oa_0','COMPONENT_PART')
);
#1965=(
GEOMETRIC_REPRESENTATION_CONTEXT(3)
GLOBAL_UNCERTAINTY_ASSIGNED_CONTEXT((#1972))
GLOBAL_UNIT_ASSIGNED_CONTEXT((#1976,#1975,#1974))
REPRESENTATION_CONTEXT('Washer M5','COMPONENT_PART')
);
#1966=(
GEOMETRIC_REPRESENTATION_CONTEXT(3)
GLOBAL_UNCERTAINTY_ASSIGNED_CONTEXT((#1973))
GLOBAL_UNIT_ASSIGNED_CONTEXT((#1976,#1975,#1974))
REPRESENTATION_CONTEXT('Al .HD.-M5x10 mm. Lg.','COMPONENT_PART')
);
#1967=UNCERTAINTY_MEASURE_WITH_UNIT(LENGTH_MEASURE(0.005),#1976,
'DISTANCE_ACCURACY_VALUE','Maximum Tolerance applied to model');
#1968=UNCERTAINTY_MEASURE_WITH_UNIT(LENGTH_MEASURE(0.005),#1976,
'DISTANCE_ACCURACY_VALUE','Maximum Tolerance applied to model');
#1969=UNCERTAINTY_MEASURE_WITH_UNIT(LENGTH_MEASURE(0.005),#1976,
'DISTANCE_ACCURACY_VALUE','Maximum Tolerance applied to model');
#1970=UNCERTAINTY_MEASURE_WITH_UNIT(LENGTH_MEASURE(0.005),#1976,
'DISTANCE_ACCURACY_VALUE','Maximum Tolerance applied to model');
#1971=UNCERTAINTY_MEASURE_WITH_UNIT(LENGTH_MEASURE(0.005),#1976,
'DISTANCE_ACCURACY_VALUE','Maximum Tolerance applied to model');
#1972=UNCERTAINTY_MEASURE_WITH_UNIT(LENGTH_MEASURE(0.005),#1976,
'DISTANCE_ACCURACY_VALUE','Maximum Tolerance applied to model');
#1973=UNCERTAINTY_MEASURE_WITH_UNIT(LENGTH_MEASURE(0.005),#1976,
'DISTANCE_ACCURACY_VALUE','Maximum Tolerance applied to model');
#1974=(
NAMED_UNIT(*)
SI_UNIT($,.STERADIAN.)
SOLID_ANGLE_UNIT()
);
#1975=(
NAMED_UNIT(*)
PLANE_ANGLE_UNIT()
SI_UNIT($,.RADIAN.)
);
#1976=(
LENGTH_UNIT()
NAMED_UNIT(*)
SI_UNIT(.MILLI.,.METRE.)
);
#1977=PRODUCT_DEFINITION_SHAPE('','',#2005);
#1978=PRODUCT_DEFINITION_SHAPE('','',#2006);
#1979=PRODUCT_DEFINITION_SHAPE(' ','NAUO PRDDFN',#49);
#1980=PRODUCT_DEFINITION_SHAPE('','',#2007);
#1981=PRODUCT_DEFINITION_SHAPE(' ','NAUO PRDDFN',#50);
#1982=PRODUCT_DEFINITION_SHAPE(' ','NAUO PRDDFN',#51);
#1983=PRODUCT_DEFINITION_SHAPE('','',#2008);
#1984=PRODUCT_DEFINITION_SHAPE(' ','NAUO PRDDFN',#52);
#1985=PRODUCT_DEFINITION_SHAPE('','',#2009);
#1986=PRODUCT_DEFINITION_SHAPE(' ','NAUO PRDDFN',#53);
#1987=PRODUCT_DEFINITION_SHAPE('','',#2010);
#1988=PRODUCT_DEFINITION_SHAPE(' ','NAUO PRDDFN',#54);
#1989=PRODUCT_DEFINITION_SHAPE(' ','NAUO PRDDFN',#55);
#1990=PRODUCT_DEFINITION_SHAPE('','',#2011);
#1991=PRODUCT_DEFINITION_SHAPE(' ','NAUO PRDDFN',#56);
#1992=PRODUCT_DEFINITION_SHAPE(' ','NAUO PRDDFN',#57);
#1993=PRODUCT_DEFINITION_SHAPE(' ','NAUO PRDDFN',#58);
#1994=PRODUCT_DEFINITION_SHAPE(' ','NAUO PRDDFN',#59);
#1995=PRODUCT_DEFINITION_SHAPE(' ','NAUO PRDDFN',#60);
#1996=PRODUCT_DEFINITION_SHAPE(' ','NAUO PRDDFN',#61);
#1997=PRODUCT_DEFINITION_SHAPE(' ','NAUO PRDDFN',#62);
#1998=PRODUCT_DEFINITION_SHAPE(' ','NAUO PRDDFN',#63);
#1999=PRODUCT_DEFINITION_SHAPE(' ','NAUO PRDDFN',#64);
#2000=PRODUCT_DEFINITION_SHAPE(' ','NAUO PRDDFN',#65);
#2001=PRODUCT_DEFINITION_SHAPE(' ','NAUO PRDDFN',#66);
#2002=PRODUCT_DEFINITION_SHAPE(' ','NAUO PRDDFN',#67);
#2003=PRODUCT_DEFINITION_SHAPE(' ','NAUO PRDDFN',#68);
#2004=PRODUCT_DEFINITION_SHAPE(' ','NAUO PRDDFN',#69);
#2005=PRODUCT_DEFINITION('','',#2019,#2012);
#2006=PRODUCT_DEFINITION('','',#2020,#2013);
#2007=PRODUCT_DEFINITION('','',#2021,#2014);
#2008=PRODUCT_DEFINITION('','',#2022,#2015);
#2009=PRODUCT_DEFINITION('','',#2023,#2016);
#2010=PRODUCT_DEFINITION('','',#2024,#2017);
#2011=PRODUCT_DEFINITION('','',#2025,#2018);
#2012=PRODUCT_DEFINITION_CONTEXT('',#2055,'design');
#2013=PRODUCT_DEFINITION_CONTEXT('',#2055,'design');
#2014=PRODUCT_DEFINITION_CONTEXT('',#2055,'design');
#2015=PRODUCT_DEFINITION_CONTEXT('',#2055,'design');
#2016=PRODUCT_DEFINITION_CONTEXT('',#2055,'design');
#2017=PRODUCT_DEFINITION_CONTEXT('',#2055,'design');
#2018=PRODUCT_DEFINITION_CONTEXT('',#2055,'design');
#2019=PRODUCT_DEFINITION_FORMATION_WITH_SPECIFIED_SOURCE('','',#2033,
 .NOT_KNOWN.);
#2020=PRODUCT_DEFINITION_FORMATION_WITH_SPECIFIED_SOURCE('','',#2034,
 .NOT_KNOWN.);
#2021=PRODUCT_DEFINITION_FORMATION_WITH_SPECIFIED_SOURCE('','',#2035,
 .NOT_KNOWN.);
#2022=PRODUCT_DEFINITION_FORMATION_WITH_SPECIFIED_SOURCE('','',#2036,
 .NOT_KNOWN.);
#2023=PRODUCT_DEFINITION_FORMATION_WITH_SPECIFIED_SOURCE('','',#2037,
 .NOT_KNOWN.);
#2024=PRODUCT_DEFINITION_FORMATION_WITH_SPECIFIED_SOURCE('','',#2038,
 .NOT_KNOWN.);
#2025=PRODUCT_DEFINITION_FORMATION_WITH_SPECIFIED_SOURCE('','',#2039,
 .NOT_KNOWN.);
#2026=PRODUCT_RELATED_PRODUCT_CATEGORY('','',(#2033));
#2027=PRODUCT_RELATED_PRODUCT_CATEGORY('','',(#2034));
#2028=PRODUCT_RELATED_PRODUCT_CATEGORY('','',(#2035));
#2029=PRODUCT_RELATED_PRODUCT_CATEGORY('','',(#2036));
#2030=PRODUCT_RELATED_PRODUCT_CATEGORY('','',(#2037));
#2031=PRODUCT_RELATED_PRODUCT_CATEGORY('','',(#2038));
#2032=PRODUCT_RELATED_PRODUCT_CATEGORY('','',(#2039));
#2033=PRODUCT('Handel','Handel','Handel',(#2047));
#2034=PRODUCT('Bottom Plate','Bottom Plate','Bottom Plate',(#2048));
#2035=PRODUCT('Bottom Plate-2','Bottom Plate-2','Bottom Plate-2',(#2049));
#2036=PRODUCT('Handel','Handel','Handel',(#2050));
#2037=PRODUCT('Handel_442_445_Fillet 1_oa_0',
'Handel_442_445_Fillet 1_oa_0','Handel_442_445_Fillet 1_oa_0',(#2051));
#2038=PRODUCT('Washer M5','Washer M5','Washer M5',(#2052));
#2039=PRODUCT('Al .HD.-M5x10 mm. Lg.','Al .HD.-M5x10 mm. Lg.',
'Al .HD.-M5x10 mm. Lg.',(#2053));
#2040=PRODUCT_CATEGORY('','');
#2041=PRODUCT_CATEGORY('','');
#2042=PRODUCT_CATEGORY('','');
#2043=PRODUCT_CATEGORY('','');
#2044=PRODUCT_CATEGORY('','');
#2045=PRODUCT_CATEGORY('','');
#2046=PRODUCT_CATEGORY('','');
#2047=PRODUCT_CONTEXT('',#2055,'mechanical');
#2048=PRODUCT_CONTEXT('',#2055,'mechanical');
#2049=PRODUCT_CONTEXT('',#2055,'mechanical');
#2050=PRODUCT_CONTEXT('',#2055,'mechanical');
#2051=PRODUCT_CONTEXT('',#2055,'mechanical');
#2052=PRODUCT_CONTEXT('',#2055,'mechanical');
#2053=PRODUCT_CONTEXT('',#2055,'mechanical');
#2054=APPLICATION_PROTOCOL_DEFINITION('international standard',
'automotive_design',2010,#2055);
#2055=APPLICATION_CONTEXT(
'core data for automotive mechanical design processes');
ENDSEC;
END-ISO-10303-21;
